<svg width="16" height="20" viewBox="0 0 16 20" fill="none" xmlns="http://www.w3.org/2000/svg">
<path d="M4.38441 0.479174L3.52401 0.738374C2.7579 0.969408 2.07373 1.41449 1.55204 2.02122C1.03034 2.62795 0.69282 3.3711 0.579207 4.16317C0.222807 6.64477 1.01961 9.54637 2.94081 12.874C4.85721 16.1932 6.96681 18.3316 9.28881 19.2676C10.0349 19.5683 10.8516 19.6484 11.6419 19.4984C12.4322 19.3484 13.1628 18.9747 13.7468 18.4216L14.3972 17.8048C14.8195 17.4051 15.0824 16.8656 15.1369 16.2867C15.1914 15.7077 15.0339 15.1287 14.6936 14.6572L13.0664 12.4012C12.8464 12.0966 12.5366 11.8685 12.1805 11.7489C11.8243 11.6292 11.4397 11.624 11.0804 11.734L8.61921 12.4864L8.55561 12.4984C8.28441 12.538 7.65801 11.9512 6.87801 10.6C6.06201 9.18637 5.89401 8.35957 6.11841 8.14597L7.37001 6.97837C7.8277 6.55173 8.14035 5.9925 8.2641 5.37916C8.38784 4.76581 8.31648 4.1291 8.06001 3.55837L7.26561 1.79317C7.02673 1.26199 6.60284 0.835787 6.07296 0.594029C5.54308 0.35227 4.94216 0.311448 4.38441 0.479174ZM6.17361 2.28517L6.96561 4.05037C7.11985 4.39265 7.16298 4.77465 7.08894 5.14271C7.0149 5.51076 6.82741 5.84637 6.55281 6.10237L5.29761 7.27117C4.49361 8.03197 4.76001 9.33037 5.84001 11.2C6.85521 12.9592 7.78161 13.828 8.77761 13.6768L8.92641 13.6456L11.432 12.8812C11.5518 12.8444 11.6801 12.846 11.7988 12.8858C11.9176 12.9256 12.021 13.0016 12.0944 13.1032L13.7216 15.3592C13.892 15.5949 13.971 15.8845 13.9438 16.1741C13.9167 16.4637 13.7852 16.7336 13.574 16.9336L12.9224 17.5504C12.5052 17.9452 11.9835 18.212 11.4191 18.319C10.8548 18.426 10.2716 18.3687 9.73881 18.154C7.70121 17.3332 5.77521 15.3808 3.98121 12.274C2.18241 9.15997 1.45401 6.51157 1.76721 4.33357C1.84828 3.76769 2.08935 3.23675 2.46203 2.80327C2.83471 2.36979 3.32349 2.05181 3.87081 1.88677L4.73121 1.62757C5.01016 1.54375 5.31007 1.56425 5.57502 1.68524C5.83997 1.80624 6.05187 2.01947 6.17121 2.28517" fill="#AFB0B6"/>
</svg>
