<svg width="362" height="365" viewBox="0 0 362 365" fill="none" xmlns="http://www.w3.org/2000/svg">
<path d="M365 279.152H0V279.335H365V279.152Z" fill="#EBEBEB"/>
<path d="M328.427 290.898H264.99V291.08H328.427V290.898Z" fill="#EBEBEB"/>
<path d="M267.435 284.123H261.092V284.306H267.435V284.123Z" fill="#EBEBEB"/>
<path d="M218.496 290.175H204.488V290.358H218.496V290.175Z" fill="#EBEBEB"/>
<path d="M54.0638 285.35H38.2958V285.532H54.0638V285.35Z" fill="#EBEBEB"/>
<path d="M80.9497 285.35H60.5608V285.532H80.9497V285.35Z" fill="#EBEBEB"/>
<path d="M185.792 288.343H151.599V288.525H185.792V288.343Z" fill="#EBEBEB"/>
<path d="M173.01 246.594H32.0543C30.9501 246.592 29.8917 246.152 29.1116 245.371C28.3315 244.589 27.8933 243.53 27.8933 242.426V44.2818C27.9029 43.1839 28.3453 42.1341 29.1244 41.3605C29.9035 40.5869 30.9564 40.1519 32.0543 40.15H173.01C174.116 40.15 175.176 40.5892 175.957 41.3709C176.739 42.1526 177.178 43.2128 177.178 44.3183V242.426C177.178 243.531 176.739 244.591 175.957 245.373C175.176 246.155 174.116 246.594 173.01 246.594ZM32.0543 40.296C30.9985 40.298 29.9865 40.7187 29.2406 41.466C28.4947 42.2133 28.0758 43.226 28.0758 44.2818V242.426C28.0758 243.482 28.4947 244.494 29.2406 245.242C29.9865 245.989 30.9985 246.41 32.0543 246.411H173.01C174.067 246.41 175.079 245.989 175.826 245.242C176.573 244.495 176.994 243.482 176.996 242.426V44.2818C176.994 43.2253 176.573 42.2126 175.826 41.4656C175.079 40.7185 174.067 40.298 173.01 40.296H32.0543Z" fill="#EBEBEB"/>
<path d="M330.916 246.594H189.953C188.848 246.592 187.789 246.152 187.008 245.371C186.227 244.59 185.787 243.531 185.785 242.426V44.2818C185.797 43.1833 186.241 42.1335 187.021 41.3601C187.801 40.5866 188.855 40.1519 189.953 40.15H330.916C332.013 40.1538 333.064 40.5897 333.841 41.3631C334.619 42.1365 335.06 43.1852 335.07 44.2818V242.426C335.07 243.529 334.633 244.587 333.854 245.368C333.076 246.149 332.019 246.59 330.916 246.594ZM189.953 40.296C188.897 40.298 187.884 40.7185 187.137 41.4656C186.39 42.2126 185.969 43.2253 185.968 44.2818V242.426C185.969 243.482 186.39 244.495 187.137 245.242C187.884 245.989 188.897 246.41 189.953 246.411H330.916C331.973 246.41 332.985 245.989 333.733 245.242C334.48 244.495 334.9 243.482 334.902 242.426V44.2818C334.9 43.2253 334.48 42.2126 333.733 41.4656C332.985 40.7185 331.973 40.298 330.916 40.296H189.953Z" fill="#EBEBEB"/>
<path d="M152.307 53.2462H39.4273V214.671H152.307V53.2462Z" fill="#E6E6E6"/>
<path d="M155.694 53.2462H41.0114V214.671H155.694V53.2462Z" fill="#F0F0F0"/>
<path d="M152.307 214.671H39.4273V217.628H152.307V214.671Z" fill="#E6E6E6"/>
<path d="M157.498 214.671H42.8145V217.628H157.498V214.671Z" fill="#F0F0F0"/>
<path d="M150.957 209.926V57.9839L45.7564 57.9839L45.7564 209.926H150.957Z" fill="#FAFAFA"/>
<path d="M94.3598 209.926L119.881 57.9912H133.021L107.5 209.926H94.3598Z" fill="white"/>
<path d="M61.2032 209.926L86.724 57.9912H99.864L74.3432 209.926H61.2032Z" fill="white"/>
<path d="M47.9464 133.663C47.7493 133.663 47.5887 133.422 47.5887 133.123V61.247C47.5887 60.9477 47.7493 60.7141 47.9464 60.7141C48.1435 60.7141 48.3114 60.9477 48.3114 61.247V133.123C48.3114 133.422 48.18 133.663 47.9464 133.663Z" fill="#F0F0F0"/>
<path d="M110.325 209.926L135.846 57.9912H140.963L115.442 209.926H110.325Z" fill="white"/>
<path d="M150.957 209.933V57.9912H150.358V209.933H150.957Z" fill="#E6E6E6"/>
<path opacity="0.5" d="M156.819 71.6933H43.9387L43.5007 59.8308H156.381L156.819 71.6933Z" fill="#E0E0E0"/>
<path opacity="0.5" d="M156.819 91.1843H43.9387L43.5007 79.3291H156.381L156.819 91.1843Z" fill="#E0E0E0"/>
<path opacity="0.5" d="M156.819 110.683H43.9387L43.5007 98.8274H156.381L156.819 110.683Z" fill="#E0E0E0"/>
<path opacity="0.5" d="M156.819 130.181H43.9387L43.5007 118.318H156.381L156.819 130.181Z" fill="#E0E0E0"/>
<path opacity="0.5" d="M156.819 149.672H43.9387L43.5007 137.817H156.381L156.819 149.672Z" fill="#E0E0E0"/>
<path opacity="0.5" d="M156.819 169.17H43.9387L43.5007 157.315H156.381L156.819 169.17Z" fill="#E0E0E0"/>
<path opacity="0.5" d="M156.819 81.4388H43.9387L43.5007 69.5763H156.381L156.819 81.4388Z" fill="#E0E0E0"/>
<path opacity="0.5" d="M156.819 100.937H43.9387L43.5007 89.0746H156.381L156.819 100.937Z" fill="#E0E0E0"/>
<path opacity="0.5" d="M156.819 120.428H43.9387L43.5007 108.573H156.381L156.819 120.428Z" fill="#E0E0E0"/>
<path opacity="0.5" d="M156.819 139.926H43.9387L43.5007 128.071H156.381L156.819 139.926Z" fill="#E0E0E0"/>
<path opacity="0.5" d="M156.819 159.425H43.9387L43.5007 147.562H156.381L156.819 159.425Z" fill="#E0E0E0"/>
<path opacity="0.5" d="M156.819 178.923H43.9387L43.5007 167.061H156.381L156.819 178.923Z" fill="#E0E0E0"/>
<path d="M216.861 163.922H194.363V276.67H216.861V163.922Z" fill="#F0F0F0"/>
<path d="M309.63 276.67H198.684V279.152H309.63V276.67Z" fill="#F0F0F0"/>
<path d="M216.854 276.67H313.936V163.922H216.854V276.67Z" fill="#F5F5F5"/>
<path d="M302.775 227.446H228.016C227.306 227.444 226.625 227.161 226.123 226.659C225.621 226.157 225.338 225.477 225.336 224.767V207.32C225.336 206.609 225.618 205.927 226.121 205.423C226.623 204.919 227.304 204.636 228.016 204.634H240.374C240.873 204.641 241.359 204.787 241.781 205.053C242.202 205.32 242.541 205.698 242.761 206.145C243.001 206.588 243.357 206.957 243.79 207.214C244.223 207.471 244.718 207.606 245.222 207.605H285.583C286.32 207.603 287.027 207.309 287.547 206.787C287.758 206.571 287.935 206.325 288.073 206.057C288.293 205.619 288.631 205.25 289.048 204.992C289.466 204.734 289.947 204.598 290.438 204.597H302.775C303.487 204.597 304.171 204.88 304.674 205.384C305.178 205.888 305.461 206.571 305.461 207.284V224.767C305.459 225.478 305.175 226.16 304.672 226.662C304.168 227.164 303.486 227.446 302.775 227.446ZM228.016 205.371C227.498 205.373 227.002 205.58 226.637 205.946C226.272 206.313 226.066 206.81 226.066 207.327V224.767C226.068 225.283 226.274 225.778 226.639 226.143C227.005 226.508 227.499 226.714 228.016 226.716H302.775C303.292 226.716 303.789 226.511 304.156 226.146C304.522 225.78 304.729 225.285 304.731 224.767V207.32C304.731 206.801 304.525 206.304 304.158 205.937C303.791 205.57 303.294 205.364 302.775 205.364H290.438C290.084 205.362 289.737 205.459 289.435 205.641C289.132 205.824 288.886 206.087 288.722 206.4C288.551 206.738 288.327 207.046 288.058 207.313C287.734 207.639 287.348 207.898 286.923 208.074C286.499 208.251 286.043 208.342 285.583 208.342H245.222C244.585 208.342 243.96 208.17 243.414 207.844C242.868 207.517 242.42 207.049 242.119 206.488C241.959 206.159 241.712 205.88 241.404 205.682C241.096 205.483 240.74 205.373 240.374 205.364L228.016 205.371Z" fill="#EBEBEB"/>
<path d="M302.775 257.909H228.016C227.306 257.907 226.625 257.624 226.123 257.122C225.621 256.62 225.338 255.94 225.336 255.23V237.79C225.336 237.079 225.618 236.397 226.121 235.893C226.623 235.39 227.304 235.106 228.016 235.104H240.374C240.873 235.112 241.359 235.257 241.781 235.523C242.202 235.79 242.541 236.168 242.761 236.615C243.001 237.058 243.357 237.427 243.79 237.684C244.223 237.941 244.718 238.076 245.222 238.075H285.583C285.947 238.076 286.308 238.005 286.644 237.864C286.98 237.724 287.285 237.518 287.54 237.257C287.755 237.044 287.935 236.797 288.073 236.527C288.293 236.089 288.631 235.72 289.048 235.462C289.466 235.205 289.947 235.068 290.438 235.067H302.775C303.487 235.067 304.171 235.35 304.674 235.854C305.178 236.358 305.461 237.041 305.461 237.754V255.193C305.465 255.549 305.398 255.901 305.265 256.23C305.132 256.56 304.935 256.859 304.685 257.112C304.435 257.364 304.137 257.565 303.81 257.702C303.482 257.839 303.13 257.909 302.775 257.909ZM228.016 235.834C227.498 235.836 227.002 236.043 226.637 236.409C226.272 236.776 226.066 237.273 226.066 237.79V255.23C226.068 255.746 226.274 256.241 226.639 256.606C227.005 256.971 227.499 257.177 228.016 257.179H302.775C303.292 257.179 303.789 256.974 304.156 256.609C304.522 256.243 304.729 255.748 304.731 255.23V237.79C304.731 237.271 304.525 236.774 304.158 236.407C303.791 236.04 303.294 235.834 302.775 235.834H290.438C290.084 235.833 289.737 235.929 289.435 236.112C289.132 236.294 288.886 236.557 288.722 236.87C288.551 237.208 288.327 237.516 288.058 237.783C287.735 238.111 287.35 238.371 286.925 238.548C286.5 238.725 286.044 238.815 285.583 238.812H245.222C244.585 238.813 243.96 238.64 243.414 238.314C242.868 237.987 242.42 237.519 242.119 236.958C241.959 236.629 241.712 236.35 241.404 236.152C241.096 235.954 240.74 235.844 240.374 235.834H228.016Z" fill="#EBEBEB"/>
<path d="M305.461 271.472H225.336V264.99H305.461V271.472ZM226.066 270.742H304.731V265.72H226.066V270.742Z" fill="#EBEBEB"/>
<path d="M302.775 196.99H228.016C227.306 196.989 226.625 196.706 226.123 196.204C225.621 195.702 225.338 195.021 225.336 194.311V176.872C225.336 176.16 225.618 175.478 226.121 174.975C226.623 174.471 227.304 174.187 228.016 174.185H240.374C240.872 174.192 241.358 174.337 241.779 174.602C242.2 174.867 242.54 175.243 242.761 175.689C243.001 176.132 243.356 176.502 243.789 176.76C244.223 177.017 244.718 177.151 245.222 177.149H285.583C286.32 177.147 287.027 176.853 287.547 176.331C287.758 176.116 287.935 175.87 288.073 175.601C288.293 175.163 288.631 174.794 289.048 174.536C289.466 174.279 289.947 174.142 290.438 174.141H302.775C303.128 174.141 303.477 174.211 303.803 174.346C304.129 174.481 304.425 174.679 304.674 174.928C304.924 175.178 305.122 175.474 305.257 175.8C305.392 176.126 305.461 176.475 305.461 176.828V194.268C305.466 194.623 305.4 194.977 305.267 195.307C305.134 195.637 304.937 195.937 304.687 196.191C304.437 196.444 304.14 196.645 303.811 196.783C303.483 196.92 303.131 196.991 302.775 196.99ZM228.016 174.915C227.498 174.917 227.002 175.124 226.637 175.491C226.272 175.858 226.066 176.354 226.066 176.872V194.311C226.068 194.828 226.274 195.322 226.639 195.687C227.005 196.053 227.499 196.259 228.016 196.26H302.775C303.292 196.26 303.789 196.055 304.156 195.69C304.522 195.325 304.729 194.829 304.731 194.311V176.872C304.731 176.353 304.525 175.855 304.158 175.488C303.791 175.121 303.294 174.915 302.775 174.915H290.438C290.084 174.914 289.737 175.01 289.435 175.193C289.132 175.376 288.886 175.638 288.722 175.952C288.551 176.29 288.327 176.598 288.058 176.864C287.734 177.191 287.349 177.451 286.924 177.627C286.499 177.804 286.043 177.894 285.583 177.894H245.222C244.585 177.893 243.961 177.721 243.415 177.394C242.868 177.068 242.421 176.6 242.119 176.039C241.959 175.71 241.712 175.432 241.404 175.233C241.096 175.035 240.74 174.925 240.374 174.915H228.016Z" fill="#EBEBEB"/>
<path d="M316.944 162.104H216.861V163.921H316.944V162.104Z" fill="#F0F0F0"/>
<path d="M191.224 163.922H216.861V162.104H191.224V163.922Z" fill="#E6E6E6"/>
<path d="M295.154 57.1371H209.284V142.365H295.154V57.1371Z" fill="#E6E6E6"/>
<path d="M299.789 57.1371H210.16V142.365H299.789V57.1371Z" fill="#F0F0F0"/>
<path d="M295.65 138.233V61.2762L214.299 61.2762V138.233H295.65Z" fill="white"/>
<path d="M254.974 131.437C248.708 131.437 242.583 129.578 237.373 126.097C232.163 122.616 228.102 117.668 225.704 111.879C223.306 106.09 222.679 99.7194 223.901 93.5737C225.124 87.428 228.141 81.7828 232.572 77.352C237.003 72.9212 242.648 69.9037 248.794 68.6813C254.939 67.4588 261.309 68.0862 267.099 70.4842C272.888 72.8821 277.836 76.9429 281.317 82.153C284.798 87.363 286.656 93.4884 286.656 99.7545C286.647 108.154 283.306 116.207 277.366 122.146C271.427 128.086 263.374 131.427 254.974 131.437ZM254.974 68.62C248.817 68.62 242.797 70.446 237.677 73.8671C232.557 77.2882 228.566 82.1508 226.21 87.8399C223.853 93.529 223.237 99.7891 224.438 105.829C225.639 111.868 228.605 117.416 232.959 121.77C237.313 126.124 242.861 129.089 248.9 130.291C254.94 131.492 261.2 130.876 266.889 128.519C272.578 126.163 277.441 122.172 280.862 117.052C284.283 111.932 286.109 105.912 286.109 99.7545C286.101 91.4995 282.818 83.5848 276.981 77.7476C271.144 71.9105 263.229 68.6278 254.974 68.62Z" fill="#F5F5F5"/>
<path d="M182.5 312.119C260.67 312.119 324.04 308.419 324.04 303.855C324.04 299.291 260.67 295.592 182.5 295.592C104.33 295.592 40.9603 299.291 40.9603 303.855C40.9603 308.419 104.33 312.119 182.5 312.119Z" fill="#F5F5F5"/>
<path d="M49.4794 262.493H228.249L241.097 151.278H62.3347L49.4794 262.493Z" fill="#8D8CF5"/>
<path opacity="0.4" d="M49.4794 262.493H228.249L241.097 151.278H62.3347L49.4794 262.493Z" fill="white"/>
<path d="M263.362 266.662H84.5924L62.3347 151.278H241.097L263.362 266.662Z" fill="#8D8CF5"/>
<path opacity="0.6" d="M263.362 266.662H84.5924L62.3347 151.278H241.097L263.362 266.662Z" fill="white"/>
<path d="M256.515 260.471H89.0454L71.0655 167.243H238.535L256.515 260.471Z" fill="white"/>
<g opacity="0.5">
<path d="M102.083 189.851H84.5705L81.1906 172.331H98.7033L102.083 189.851Z" fill="#8D8CF5"/>
<path d="M233.753 189.851H216.233L212.861 172.331H230.373L233.753 189.851Z" fill="#8D8CF5"/>
<path d="M211.802 189.851H194.29L190.91 172.331H208.43L211.802 189.851Z" fill="#8D8CF5"/>
<path d="M189.858 189.851H172.346L168.966 172.331H186.486L189.858 189.851Z" fill="#8D8CF5"/>
<path d="M167.915 189.851H150.402L147.022 172.331H164.535L167.915 189.851Z" fill="#8D8CF5"/>
<path d="M145.971 189.851H128.458L125.078 172.331H142.591L145.971 189.851Z" fill="#8D8CF5"/>
<path d="M124.027 189.851H106.514L103.134 172.331H120.647L124.027 189.851Z" fill="#8D8CF5"/>
<path opacity="0.5" d="M106.295 211.693H88.7826L85.4027 194.18H102.915L106.295 211.693Z" fill="#8D8CF5"/>
<path d="M237.965 211.693H220.453L217.073 194.18H234.586L237.965 211.693Z" fill="#8D8CF5"/>
<path opacity="0.5" d="M216.022 211.693H198.509L195.129 194.18H212.642L216.022 211.693Z" fill="#8D8CF5"/>
<path d="M194.078 211.693H176.558L173.185 194.18H190.698L194.078 211.693Z" fill="#8D8CF5"/>
<path d="M172.127 211.693H154.614L151.234 194.18H168.754L172.127 211.693Z" fill="#8D8CF5"/>
<path d="M150.183 211.693H132.67L129.29 194.18H146.803L150.183 211.693Z" fill="#8D8CF5"/>
<path d="M128.239 211.693H110.726L107.347 194.18H124.859L128.239 211.693Z" fill="#8D8CF5"/>
<path d="M110.507 233.534H92.9947L89.6148 216.022H107.128L110.507 233.534Z" fill="#8D8CF5"/>
<path d="M242.178 233.534H224.665L221.285 216.022H238.798L242.178 233.534Z" fill="#8D8CF5"/>
<path d="M220.234 233.534H202.721L199.341 216.022H216.854L220.234 233.534Z" fill="#8D8CF5"/>
<path d="M198.29 233.534H180.777L177.397 216.022H194.91L198.29 233.534Z" fill="#8D8CF5"/>
<path d="M176.346 233.534H158.826L155.454 216.022H172.966L176.346 233.534Z" fill="#8D8CF5"/>
<path d="M154.395 233.534H136.882L133.502 216.022H151.022L154.395 233.534Z" fill="#8D8CF5"/>
<path d="M132.451 233.534H114.939L111.559 216.022H129.071L132.451 233.534Z" fill="#8D8CF5"/>
<path d="M114.72 255.383H97.2068L93.8269 237.863H111.347L114.72 255.383Z" fill="#8D8CF5"/>
<path d="M246.39 255.383H228.877L225.497 237.863H243.01L246.39 255.383Z" fill="#8D8CF5"/>
<path d="M224.446 255.383H206.933L203.553 237.863H221.066L224.446 255.383Z" fill="#8D8CF5"/>
<path d="M202.502 255.383H184.989L181.609 237.863H199.122L202.502 255.383Z" fill="#8D8CF5"/>
<path d="M180.558 255.383H163.046L159.666 237.863H177.178L180.558 255.383Z" fill="#8D8CF5"/>
<path d="M158.614 255.383H141.094L137.722 237.863H155.234L158.614 255.383Z" fill="#8D8CF5"/>
<path opacity="0.5" d="M136.671 255.383H119.151L115.778 237.863H133.291L136.671 255.383Z" fill="#8D8CF5"/>
</g>
<path d="M84.3807 159.198L84.1544 158.038C86.2203 158.038 87.3737 154.943 86.6656 151.278C85.9575 147.613 83.6142 144.511 81.5556 144.511C79.497 144.511 78.3363 147.613 79.0371 151.278H77.8837C77.0223 146.832 78.5407 143.357 81.3293 143.357C84.1179 143.357 86.9795 146.832 87.8336 151.278C88.6877 155.724 87.1693 159.198 84.3807 159.198Z" fill="#263238"/>
<path d="M101.667 159.198L101.441 158.038C103.507 158.038 104.66 154.943 103.952 151.278C103.244 147.613 100.901 144.511 98.842 144.511C96.7834 144.511 95.6227 147.613 96.3235 151.278H95.1701C94.3087 146.832 95.8271 143.357 98.6157 143.357C101.404 143.357 104.266 146.832 105.12 151.278C105.974 155.724 104.456 159.198 101.667 159.198Z" fill="#263238"/>
<path d="M118.99 159.198L118.764 158.038C120.83 158.038 121.983 154.943 121.275 151.278C120.567 147.613 118.223 144.511 116.165 144.511C114.106 144.511 112.938 147.613 113.646 151.278H112.42C111.559 146.832 113.077 143.357 115.866 143.357C118.654 143.357 121.516 146.832 122.37 151.278C123.224 155.724 121.742 159.198 118.99 159.198Z" fill="#263238"/>
<path d="M136.233 159.198L136.014 158.038C138.08 158.038 139.233 154.943 138.525 151.278C137.817 147.613 135.473 144.511 133.415 144.511C131.356 144.511 130.196 147.613 130.904 151.278H129.743C128.889 146.832 130.407 143.357 133.196 143.357C135.984 143.357 138.839 146.832 139.7 151.278C140.562 155.724 139.029 159.198 136.233 159.198Z" fill="#263238"/>
<path d="M153.519 159.198L153.3 158.038C155.366 158.038 156.519 154.943 155.811 151.278C155.103 147.613 152.76 144.511 150.701 144.511C148.643 144.511 147.482 147.613 148.19 151.278H147.029C146.175 146.832 147.694 143.357 150.482 143.357C153.271 143.357 156.125 146.832 156.986 151.278C157.848 155.724 156.315 159.198 153.519 159.198Z" fill="#263238"/>
<path d="M170.82 159.198L170.601 158.038C172.667 158.038 173.82 154.943 173.112 151.278C172.404 147.613 170.061 144.511 168.002 144.511C165.944 144.511 164.783 147.613 165.491 151.278H164.33C163.476 146.832 164.987 143.357 167.783 143.357C170.579 143.357 173.426 146.832 174.288 151.278C175.149 155.724 173.601 159.198 170.82 159.198Z" fill="#263238"/>
<path d="M188.092 159.198L187.873 158.038C189.939 158.038 191.092 154.943 190.384 151.278C189.676 147.613 187.333 144.511 185.274 144.511C183.215 144.511 182.055 147.613 182.763 151.278H181.602C180.748 146.832 182.259 143.357 185.055 143.357C187.851 143.357 190.698 146.832 191.559 151.278C192.421 155.724 190.888 159.198 188.092 159.198Z" fill="#263238"/>
<path d="M205.378 159.198L205.159 158.038C207.225 158.038 208.379 154.943 207.67 151.278C206.962 147.613 204.619 144.511 202.56 144.511C200.502 144.511 199.341 147.613 200.049 151.278H198.889C198.034 146.832 199.546 143.357 202.341 143.357C205.137 143.357 207.984 146.832 208.846 151.278C209.707 155.724 208.167 159.198 205.378 159.198Z" fill="#263238"/>
<path d="M222.65 159.198L222.431 158.038C224.497 158.038 225.65 154.943 224.942 151.278C224.234 147.613 221.891 144.511 219.832 144.511C217.774 144.511 216.613 147.613 217.321 151.278H216.16C215.306 146.832 216.817 143.357 219.613 143.357C222.409 143.357 225.256 146.832 226.11 151.278C226.964 155.724 225.453 159.198 222.65 159.198Z" fill="#263238"/>
<path d="M147.964 187.384H86.5561L83.1762 169.871H144.584L147.964 187.384Z" fill="#8D8CF5"/>
<path d="M174.134 209.233H156.614L153.242 191.713H170.754L174.134 209.233Z" fill="#8D8CF5"/>
<path d="M228.928 231.658L227.979 230.833C226.031 229.128 223.863 227.691 221.533 226.563L222.139 224.774C224.309 225.824 226.352 227.12 228.227 228.636C231.46 223.841 235.694 219.804 240.637 216.803L241.944 218.584C236.912 221.641 232.651 225.815 229.49 230.782L228.928 231.658Z" fill="#8D8CF5"/>
<path d="M167.71 194.611H166.126L163.476 199.407L158.987 194.611H157.403L162.892 200.473L159.658 206.327H161.25L163.892 201.538L168.382 206.327H169.973L164.476 200.473L167.71 194.611Z" fill="white"/>
<path d="M200.173 236.564L203.093 251.755H187.909L184.989 236.564H200.181M201.122 235.403H183.602L186.982 252.923H204.502L201.13 235.403H201.122Z" fill="#8D8CF5"/>
<path d="M156.388 231.074H116.931L113.552 213.562H153.008L156.388 231.074Z" fill="#263238"/>
<path d="M129.21 220.548C129.315 220.954 129.324 221.38 129.235 221.791C129.146 222.202 128.962 222.586 128.698 222.913C128.434 223.24 128.098 223.501 127.715 223.674C127.332 223.848 126.914 223.93 126.494 223.913C125.546 223.878 124.637 223.528 123.91 222.918C123.183 222.309 122.68 221.475 122.479 220.548C122.376 220.141 122.369 219.716 122.458 219.306C122.548 218.896 122.731 218.512 122.995 218.185C123.259 217.859 123.595 217.598 123.977 217.424C124.358 217.25 124.776 217.167 125.195 217.182C126.143 217.219 127.051 217.569 127.778 218.178C128.505 218.788 129.008 219.621 129.21 220.548Z" fill="white"/>
<path d="M130.02 223.73C129.649 224.246 129.156 224.663 128.586 224.945C128.016 225.226 127.385 225.363 126.75 225.344C125.301 225.309 123.917 224.736 122.866 223.738C122.216 224.089 121.694 224.637 121.374 225.303C121.054 225.969 120.953 226.719 121.085 227.446H133.232C133.013 226.624 132.609 225.863 132.053 225.219C131.497 224.576 130.802 224.067 130.02 223.73Z" fill="white"/>
<path d="M149.811 221.226H136.379L136.006 219.292H149.438L149.811 221.226Z" fill="white"/>
<path d="M146.11 225.336H137.174L136.802 223.402H145.737L146.11 225.336Z" fill="white"/>
<path d="M216.635 171.506C220.095 171.506 224.993 172.01 228.694 174.426C229.367 174.823 229.953 175.35 230.418 175.977C230.883 176.604 231.218 177.318 231.403 178.076C232.052 180.945 230.527 184.077 228.84 185.778C226.176 188.464 222.03 190.158 217.16 190.493C216.606 190.537 216.036 190.559 215.474 190.559C212.046 190.529 208.653 189.856 205.473 188.574C202.341 187.325 199.02 185.654 198.086 182.398C197.842 181.648 197.767 180.853 197.867 180.07C197.966 179.288 198.238 178.537 198.662 177.872C199.214 177.028 199.944 176.315 200.801 175.784C204.846 173.282 209.455 171.839 214.204 171.586C215.014 171.535 215.832 171.506 216.635 171.506ZM216.416 170.382C215.547 170.382 214.708 170.382 213.919 170.47C209.005 170.728 204.235 172.219 200.049 174.806C199.087 175.405 198.267 176.207 197.648 177.156C197.152 177.945 196.836 178.834 196.722 179.758C196.607 180.683 196.696 181.621 196.983 182.507C198.078 186.289 201.823 188.252 205.225 189.603C208.55 190.947 212.099 191.65 215.686 191.676C216.277 191.676 216.861 191.676 217.445 191.618C222.073 191.282 226.687 189.705 229.724 186.639C232.761 183.573 234.695 177.069 229.184 173.499C225.468 171.097 220.606 170.382 216.409 170.382H216.416Z" fill="#263238"/>
<path d="M282.525 298.687L287.751 297.3L285.204 285.007L279.977 286.401L282.525 298.687Z" fill="#B55B52"/>
<path d="M287.919 296.336L282.145 298.234C282.046 298.262 281.963 298.327 281.912 298.416C281.861 298.505 281.848 298.61 281.875 298.709L283.101 303.373C283.178 303.614 283.348 303.814 283.572 303.931C283.796 304.047 284.057 304.07 284.299 303.994C286.299 303.264 287.218 302.862 289.759 302.03C291.321 301.512 295.103 300.351 297.256 299.643C299.41 298.935 298.658 296.825 297.679 296.928C293.299 297.409 290.737 297.022 288.919 296.365C288.599 296.241 288.246 296.231 287.919 296.336Z" fill="#263238"/>
<path opacity="0.2" d="M279.977 286.401L285.204 285.007L286.518 291.343L281.284 292.737L279.977 286.401Z" fill="black"/>
<path d="M266.574 161.126C266.574 161.126 273.874 205.181 276.064 220.548C278.437 237.374 287.321 287.992 287.321 287.992L278.561 291.307C278.561 291.307 264.581 241.542 260.72 225.183C256.522 207.422 247.28 161.126 247.28 161.126H266.574Z" fill="#263238"/>
<path opacity="0.3" d="M254.843 179.193C258.581 188.53 259.004 204.4 257.486 210.904C255.193 200.224 252.565 187.449 250.543 177.514C251.266 174.966 252.58 173.514 254.843 179.193Z" fill="black"/>
<path d="M278.166 292.548L288.335 289.496L288.043 285.335L275.94 288.876L278.166 292.548Z" fill="#263238"/>
<path d="M290.036 296.636C289.56 296.775 289.071 296.863 288.576 296.898C288.552 296.9 288.528 296.896 288.507 296.886C288.485 296.875 288.466 296.86 288.452 296.84C288.44 296.819 288.434 296.795 288.434 296.771C288.434 296.746 288.44 296.722 288.452 296.701C288.576 296.533 289.708 295.059 290.416 295.095C290.496 295.101 290.573 295.127 290.641 295.17C290.708 295.214 290.764 295.273 290.803 295.343C290.882 295.446 290.93 295.57 290.941 295.699C290.953 295.828 290.928 295.958 290.869 296.073C290.666 296.353 290.371 296.553 290.036 296.636ZM288.876 296.636C289.861 296.511 290.525 296.263 290.686 295.949C290.718 295.875 290.73 295.793 290.721 295.713C290.712 295.632 290.683 295.555 290.635 295.489C290.616 295.454 290.589 295.425 290.556 295.403C290.523 295.381 290.485 295.368 290.445 295.365C290.065 295.329 289.35 296.044 288.876 296.621V296.636Z" fill="#8D8CF5"/>
<path d="M288.635 296.891C288.616 296.898 288.595 296.898 288.576 296.891C288.556 296.888 288.536 296.879 288.519 296.867C288.503 296.854 288.49 296.837 288.481 296.818C288.481 296.752 287.854 295.314 288.204 294.628C288.25 294.542 288.315 294.468 288.393 294.41C288.471 294.352 288.561 294.312 288.657 294.292C288.761 294.262 288.873 294.268 288.973 294.309C289.074 294.35 289.158 294.424 289.211 294.519C289.518 295.037 289.102 296.365 288.693 296.833C288.671 296.876 288.657 296.891 288.635 296.891ZM288.635 294.577C288.541 294.611 288.463 294.678 288.416 294.767C288.293 295.354 288.362 295.966 288.613 296.511C288.969 295.966 289.099 295.304 288.978 294.665C288.941 294.599 288.876 294.526 288.693 294.562L288.635 294.577Z" fill="#8D8CF5"/>
<path d="M265.464 115.771C265.676 116.114 265.968 116.596 266.238 117.012L267.07 118.326C267.647 119.194 268.217 120.063 268.822 120.917C270.012 122.618 271.268 124.268 272.567 125.837C273.835 127.372 275.206 128.818 276.67 130.166C277.994 131.403 279.465 132.472 281.05 133.349L279.897 133.021C281.027 133.253 282.185 133.319 283.335 133.218C283.963 133.159 284.605 133.079 285.262 132.962C285.919 132.845 286.583 132.685 287.255 132.502C288.637 132.126 289.995 131.665 291.321 131.123C292 130.845 292.679 130.561 293.358 130.254C294.037 129.947 294.73 129.604 295.321 129.327L295.519 129.232C296.085 128.961 296.736 128.926 297.328 129.134C297.921 129.342 298.407 129.776 298.679 130.342C298.884 130.777 298.952 131.265 298.875 131.74C298.799 132.216 298.58 132.657 298.249 133.006C297.584 133.692 297.001 134.24 296.344 134.816C295.687 135.393 295.03 135.904 294.336 136.415C292.924 137.446 291.43 138.359 289.868 139.145C288.22 139.973 286.484 140.612 284.693 141.051C283.731 141.272 282.755 141.43 281.773 141.525C280.74 141.613 279.703 141.613 278.67 141.525C278.377 141.496 278.089 141.425 277.816 141.313L277.524 141.189C275.112 140.145 272.858 138.766 270.83 137.094C268.907 135.543 267.117 133.834 265.479 131.984C263.879 130.213 262.383 128.35 260.997 126.407C260.311 125.434 259.649 124.46 259.011 123.487C258.697 122.983 258.383 122.487 258.077 121.968C257.77 121.45 257.493 120.968 257.157 120.341C256.536 119.248 256.374 117.953 256.707 116.74C257.04 115.528 257.842 114.498 258.935 113.876C260.028 113.255 261.323 113.093 262.535 113.426C263.747 113.76 264.777 114.561 265.399 115.654L265.464 115.771Z" fill="#263238"/>
<path opacity="0.3" d="M269.961 129.122C267.114 123.282 262.26 123.618 260.303 125.421L260.858 126.232C262.183 128.11 263.611 129.913 265.136 131.634C266.697 133.402 268.385 135.054 270.188 136.576C270.757 137.043 271.348 137.503 271.947 137.941C271.865 134.9 271.191 131.905 269.961 129.122Z" fill="black"/>
<path d="M296.942 128.48L300.592 125.436L302.782 130.159C302.782 130.159 297.344 134.05 296.095 132.678L295.949 130.918C295.908 130.462 295.977 130.003 296.15 129.579C296.322 129.154 296.594 128.778 296.942 128.48Z" fill="#FFBE9D"/>
<path d="M305.461 126.013L306.607 129.663L302.753 130.137L300.577 125.414L305.461 126.013Z" fill="#FFBE9D"/>
<path d="M236.797 298.512H242.207L242.908 285.978H237.498L236.797 298.512Z" fill="#B55B52"/>
<path d="M242.491 297.884H236.411C236.36 297.882 236.309 297.89 236.261 297.908C236.214 297.925 236.17 297.952 236.133 297.987C236.095 298.021 236.065 298.063 236.044 298.109C236.023 298.155 236.011 298.205 236.009 298.256L235.71 303.067C235.71 303.32 235.809 303.563 235.987 303.743C236.164 303.923 236.406 304.027 236.659 304.03C238.776 303.994 239.79 303.87 242.462 303.87C244.105 303.87 248.638 304.038 250.908 304.038C253.179 304.038 253.098 301.789 252.157 301.585C247.835 300.68 244.952 299.395 243.397 298.22C243.142 298.008 242.822 297.89 242.491 297.884Z" fill="#263238"/>
<path opacity="0.2" d="M237.498 285.985H242.907L242.542 292.445H237.133L237.498 285.985Z" fill="black"/>
<path d="M256.004 161.126C256.004 161.126 255.537 208.145 254.661 223.643C253.697 240.608 244.864 290.883 244.864 290.883H234.951C234.951 290.883 239.272 241.973 238.674 225.183C238.024 206.933 237.63 161.126 237.63 161.126H256.004Z" fill="#263238"/>
<path d="M234.155 290.883H246.244L246.835 287.124L233.644 287.708L234.155 290.883Z" fill="#263238"/>
<path d="M244.404 298.826C243.912 298.814 243.423 298.751 242.944 298.636C242.92 298.631 242.897 298.619 242.88 298.602C242.862 298.584 242.85 298.562 242.845 298.537C242.841 298.513 242.843 298.488 242.853 298.465C242.863 298.442 242.879 298.423 242.9 298.409C243.075 298.285 244.601 297.241 245.265 297.504C245.34 297.533 245.406 297.58 245.457 297.641C245.508 297.703 245.543 297.776 245.557 297.855C245.592 297.973 245.596 298.097 245.569 298.217C245.542 298.337 245.485 298.449 245.404 298.541C245.117 298.755 244.761 298.857 244.404 298.826ZM243.309 298.453C244.28 298.643 244.995 298.614 245.244 298.366C245.299 298.306 245.336 298.232 245.353 298.152C245.37 298.073 245.365 297.99 245.338 297.913C245.332 297.873 245.316 297.836 245.29 297.805C245.264 297.774 245.23 297.751 245.192 297.738C244.842 297.599 243.937 298.052 243.309 298.453Z" fill="#8D8CF5"/>
<path d="M242.995 298.636C242.976 298.643 242.955 298.643 242.937 298.636C242.917 298.626 242.901 298.612 242.89 298.594C242.878 298.576 242.872 298.555 242.871 298.534C242.871 298.468 242.74 296.913 243.287 296.387C243.357 296.32 243.441 296.27 243.534 296.239C243.626 296.209 243.724 296.2 243.82 296.212C243.928 296.216 244.031 296.255 244.114 296.324C244.198 296.392 244.256 296.487 244.28 296.592C244.404 297.183 243.594 298.315 243.061 298.636C243.039 298.642 243.016 298.642 242.995 298.636ZM243.725 296.446C243.624 296.446 243.527 296.485 243.455 296.555C243.155 297.074 243.029 297.675 243.097 298.271C243.572 297.877 244.105 297.015 244.024 296.628C244.024 296.555 243.966 296.468 243.784 296.446H243.725Z" fill="#8D8CF5"/>
<path d="M264.296 117.158C264.024 116.245 263.508 115.423 262.805 114.78C262.102 114.138 261.237 113.698 260.303 113.508C258.969 113.192 257.616 112.961 256.252 112.814C252.155 112.58 248.048 112.58 243.951 112.814C241.805 112.916 239.615 113.179 237.87 113.435H237.805C237.346 113.499 236.905 113.655 236.508 113.894C236.111 114.132 235.766 114.448 235.493 114.823C235.221 115.198 235.027 115.623 234.922 116.075C234.818 116.526 234.805 116.993 234.885 117.45C236.26 124.71 237.159 132.053 237.579 139.43C238.002 150.139 237.425 158.549 237.63 161.133H266.574C268.333 134.992 266.063 123.115 264.296 117.158Z" fill="#E6E6E6"/>
<path d="M244.769 112.332C247.047 121.574 249.149 144.993 249.113 163.301H236.878C236.659 160.571 237.272 151.709 236.827 140.415C236.388 132.652 235.449 124.925 234.016 117.282C233.933 116.803 233.946 116.312 234.055 115.838C234.164 115.364 234.367 114.917 234.651 114.523C234.935 114.128 235.295 113.795 235.71 113.542C236.125 113.288 236.587 113.12 237.068 113.048H237.133C238.973 112.778 241.28 112.5 243.543 112.391L244.769 112.332Z" fill="#263238"/>
<path d="M265.786 117.289C265.474 116.28 264.907 115.369 264.14 114.644C263.373 113.918 262.431 113.404 261.406 113.15C259.471 112.846 257.522 112.646 255.566 112.551C257.88 120.581 262.42 145.044 261.07 163.301H268.793C270.626 135.904 267.509 122.297 265.786 117.289Z" fill="#263238"/>
<path d="M310.9 142.598L253.31 167.243L246.39 151.154L303.987 126.509L310.9 142.598Z" fill="#8D8CF5"/>
<path d="M262.296 151.95C262.558 152.561 262.633 153.237 262.511 153.891C262.389 154.545 262.076 155.148 261.611 155.624C261.147 156.101 260.551 156.428 259.901 156.566C259.25 156.704 258.573 156.646 257.955 156.4C257.337 156.153 256.806 155.728 256.429 155.18C256.052 154.632 255.846 153.984 255.838 153.319C255.829 152.653 256.017 152 256.38 151.442C256.742 150.884 257.261 150.446 257.873 150.183C258.279 150.008 258.716 149.915 259.158 149.909C259.601 149.903 260.04 149.985 260.451 150.149C260.862 150.313 261.236 150.557 261.553 150.865C261.87 151.174 262.122 151.543 262.296 151.95Z" fill="white"/>
<path d="M263.749 154.797C263.535 155.437 263.188 156.024 262.73 156.521C262.273 157.017 261.716 157.412 261.095 157.678C260.475 157.944 259.805 158.076 259.13 158.065C258.455 158.054 257.79 157.9 257.179 157.614C256.661 158.203 256.31 158.92 256.164 159.691C256.018 160.461 256.081 161.257 256.347 161.994L267.516 157.22C267.164 156.515 266.629 155.917 265.966 155.49C265.303 155.064 264.537 154.824 263.749 154.797Z" fill="white"/>
<path d="M302.709 135.4L269.049 149.803L268.29 148.022L301.95 133.619L302.709 135.4Z" fill="white"/>
<path d="M300.205 140.941L270.677 153.577L269.91 151.796L299.439 139.16L300.205 140.941Z" fill="white"/>
<path opacity="0.3" d="M240.659 126.655C240.455 120.516 235.921 118.173 234.644 119.822C234.588 119.889 234.536 119.96 234.491 120.034C235.286 124.764 236.257 131.276 236.681 137.693C238.834 136.452 240.849 132.488 240.659 126.655Z" fill="black"/>
<path d="M255.668 112.8C252.091 111.953 251.463 109.741 251.704 107.31C251.761 106.701 251.856 106.096 251.989 105.5L247.506 101.777L244.214 99.0464C245.127 103.01 246.156 110.23 243.484 112.873C243.484 112.873 245.674 116.523 251.828 116.201C256.96 115.917 255.668 112.8 255.668 112.8Z" fill="#FFBE9D"/>
<path d="M249.368 119.465C249.791 118.248 250.479 117.141 251.383 116.223C248.635 115.322 246.136 113.792 244.083 111.756L242.207 112.486C242.207 112.486 242.871 117.253 249.368 119.465Z" fill="white"/>
<path d="M254.376 118.647C253.563 117.634 252.543 116.807 251.383 116.223C253.186 115.712 253.887 112.055 253.887 112.055L255.646 112.42C255.646 112.42 258.894 117.187 254.376 118.647Z" fill="white"/>
<path opacity="0.2" d="M251.989 105.5C251.856 106.096 251.761 106.701 251.704 107.31C250.032 106.974 247.798 105.193 247.565 103.485C247.483 102.919 247.463 102.346 247.506 101.777L251.989 105.5Z" fill="black"/>
<path d="M254.076 86.0305C256.332 85.6217 258.96 87.9869 257.726 92.7903C256.493 97.5937 250.631 86.651 254.076 86.0305Z" fill="#263238"/>
<path d="M242.856 93.3451C244.002 98.6084 244.404 101.74 247.514 104.142C248.516 104.932 249.715 105.434 250.981 105.592C252.248 105.751 253.533 105.56 254.699 105.04C255.865 104.521 256.866 103.693 257.596 102.645C258.325 101.598 258.754 100.371 258.836 99.0975C259.245 94.1992 257.31 86.4174 251.77 84.9282C250.579 84.5734 249.317 84.538 248.108 84.8254C246.9 85.1128 245.788 85.7131 244.885 86.5658C243.982 87.4186 243.319 88.4939 242.963 89.6838C242.607 90.8738 242.57 92.1364 242.856 93.3451Z" fill="#FFBE9D"/>
<path d="M244.973 99.0464C245.747 97.2214 246.433 92.1406 245.806 90.0309C248.324 89.9506 253.617 89.4834 255.821 87.0306C259.208 83.2638 254.741 78.8108 249.12 82.3586C245.47 84.6435 237.593 84.1909 238.9 86.7386C235.06 90.9653 239.374 95.7395 244.973 99.0464Z" fill="#263238"/>
<path d="M238.893 86.9284C238.866 86.9282 238.84 86.9222 238.816 86.9108C238.792 86.8995 238.771 86.883 238.754 86.8627C238.287 86.286 238.141 85.8042 238.301 85.4027C238.688 84.4391 240.696 84.1763 243.01 83.8843C245.2 83.6069 247.623 83.293 248.397 82.3075C248.432 82.2757 248.478 82.2581 248.525 82.2581C248.572 82.2581 248.618 82.2757 248.653 82.3075C248.67 82.3239 248.684 82.3437 248.693 82.3656C248.703 82.3876 248.708 82.4113 248.708 82.4352C248.708 82.4592 248.703 82.4829 248.693 82.5048C248.684 82.5268 248.67 82.5466 248.653 82.563C247.784 83.6653 245.368 83.9719 243.032 84.2712C241.01 84.534 238.922 84.7968 238.652 85.5706C238.542 85.848 238.652 86.2203 239.039 86.6802C239.072 86.7143 239.091 86.7602 239.091 86.8079C239.091 86.8557 239.072 86.9016 239.039 86.9357C238.99 86.95 238.939 86.9475 238.893 86.9284Z" fill="#263238"/>
<path d="M242.046 97.5938C242.674 98.5767 243.624 99.3118 244.733 99.6743C246.141 100.098 246.623 98.7983 246.054 97.4259C245.536 96.1849 244.178 94.4694 242.856 94.6519C241.535 94.8344 241.25 96.3601 242.046 97.5938Z" fill="#FFBE9D"/>
<path d="M250.39 93.8707C250.456 94.3014 250.74 94.6007 251.025 94.6007C251.31 94.6007 251.478 94.1919 251.412 93.7613C251.346 93.3306 251.062 93.0312 250.777 93.0312C250.492 93.0312 250.324 93.44 250.39 93.8707Z" fill="#263238"/>
<path d="M255.288 93.2867C255.354 93.7174 255.639 94.0167 255.923 94.0167C256.208 94.0167 256.383 93.6006 256.31 93.1699C256.237 92.7392 255.96 92.4399 255.683 92.4399C255.405 92.4399 255.223 92.856 255.288 93.2867Z" fill="#263238"/>
<path d="M254.536 93.6882C255.261 94.9488 256.149 96.1075 257.179 97.1338C256.91 97.3801 256.59 97.564 256.242 97.6725C255.893 97.781 255.526 97.8115 255.164 97.7616L254.536 93.6882Z" fill="#482F2E"/>
<path d="M253.573 99.1414C253.066 99.1482 252.564 99.0521 252.096 98.8588C251.628 98.6656 251.204 98.3792 250.85 98.0172C250.839 98.0047 250.83 97.9902 250.825 97.9745C250.82 97.9587 250.817 97.9421 250.818 97.9255C250.819 97.9089 250.824 97.8926 250.831 97.8777C250.838 97.8627 250.848 97.8493 250.861 97.8383C250.873 97.8273 250.888 97.8188 250.904 97.8134C250.919 97.808 250.936 97.8057 250.953 97.8068C250.969 97.8078 250.985 97.812 251 97.8193C251.015 97.8266 251.029 97.8368 251.04 97.8493C251.433 98.2326 251.908 98.5223 252.428 98.6967C252.949 98.8712 253.502 98.9258 254.047 98.8567C254.064 98.8536 254.081 98.854 254.098 98.8579C254.115 98.8618 254.131 98.8691 254.144 98.8794C254.158 98.8897 254.169 98.9027 254.178 98.9177C254.186 98.9326 254.192 98.9491 254.193 98.9662C254.195 98.9825 254.194 98.999 254.19 99.0149C254.185 99.0307 254.178 99.0455 254.168 99.0584C254.157 99.0713 254.145 99.0821 254.13 99.09C254.116 99.098 254.1 99.1031 254.084 99.1049C253.914 99.1274 253.744 99.1396 253.573 99.1414Z" fill="#263238"/>
<path d="M248.791 92.4764C248.748 92.4735 248.705 92.461 248.667 92.4399C248.638 92.4233 248.612 92.401 248.591 92.3743C248.571 92.3476 248.556 92.3171 248.547 92.2845C248.538 92.2519 248.536 92.2179 248.54 92.1845C248.544 92.151 248.555 92.1187 248.572 92.0895C248.761 91.7338 249.034 91.4298 249.367 91.2045C249.701 90.9791 250.085 90.8393 250.485 90.7974C250.518 90.7955 250.552 90.8001 250.584 90.8112C250.616 90.8222 250.645 90.8394 250.67 90.8618C250.695 90.8842 250.715 90.9113 250.73 90.9416C250.745 90.9719 250.753 91.0048 250.755 91.0383C250.757 91.0719 250.752 91.1055 250.741 91.1373C250.73 91.169 250.713 91.1983 250.691 91.2234C250.668 91.2485 250.641 91.2689 250.611 91.2835C250.581 91.2981 250.548 91.3066 250.514 91.3084C250.199 91.3458 249.898 91.4598 249.637 91.6405C249.376 91.8212 249.163 92.0631 249.018 92.345C248.995 92.3853 248.962 92.4188 248.923 92.4419C248.883 92.465 248.837 92.477 248.791 92.4764Z" fill="#263238"/>
<path d="M257.486 91.3595C257.443 91.3597 257.402 91.3491 257.365 91.3287C257.328 91.3082 257.296 91.2786 257.274 91.2427C257.097 90.9666 256.858 90.7349 256.577 90.5653C256.296 90.3957 255.98 90.2928 255.653 90.2645C255.586 90.2645 255.521 90.2376 255.473 90.1897C255.425 90.1418 255.398 90.0768 255.398 90.009C255.398 89.9413 255.425 89.8763 255.473 89.8284C255.521 89.7805 255.586 89.7535 255.653 89.7535C256.064 89.7822 256.462 89.906 256.817 90.115C257.172 90.324 257.473 90.6126 257.697 90.958C257.734 91.0155 257.747 91.0849 257.733 91.1516C257.719 91.2184 257.68 91.2772 257.624 91.3157C257.583 91.3435 257.535 91.3587 257.486 91.3595Z" fill="#263238"/>
<path d="M241.323 120.997L241.272 121.078L241.148 121.282L240.885 121.742C240.703 122.071 240.528 122.406 240.353 122.757C240.017 123.487 239.688 124.217 239.396 124.947C238.813 126.476 238.35 128.047 238.009 129.648C237.331 132.953 237.132 136.338 237.418 139.7C237.457 140.407 237.553 141.11 237.703 141.802C237.869 142.502 238.101 143.184 238.396 143.839C239.073 145.337 239.902 146.76 240.871 148.088C243.003 150.971 245.387 153.658 247.996 156.118L248.098 156.22C248.504 156.615 248.755 157.142 248.805 157.706C248.856 158.27 248.702 158.833 248.373 159.293C248.043 159.754 247.559 160.08 247.009 160.214C246.459 160.348 245.879 160.281 245.375 160.023C243.544 159.088 241.791 158.006 240.134 156.789C238.447 155.571 236.859 154.224 235.381 152.76C233.814 151.201 232.441 149.458 231.293 147.569C230.663 146.542 230.137 145.453 229.724 144.321C229.321 143.176 229.025 141.995 228.84 140.795C228.462 138.682 228.267 136.54 228.256 134.393C228.223 132.219 228.387 130.047 228.746 127.903C229.107 125.727 229.676 123.59 230.446 121.523C230.839 120.469 231.29 119.439 231.797 118.435C232.06 117.924 232.33 117.42 232.636 116.917C232.79 116.661 232.95 116.406 233.118 116.143L233.388 115.749L233.753 115.245C234.526 114.283 235.643 113.661 236.867 113.509C238.091 113.357 239.327 113.687 240.311 114.431C241.296 115.174 241.952 116.272 242.141 117.491C242.33 118.71 242.037 119.954 241.323 120.961V120.997Z" fill="#263238"/>
<path d="M249.543 156.176L252.558 156.016L249.061 161.856C249.061 161.856 244.185 161.235 244.681 158.746L245.36 158.016C246.471 156.894 247.966 156.236 249.543 156.176Z" fill="#FFBE9D"/>
<path d="M255.683 158.111L253.055 164.316L249.061 161.878L252.558 156.016L255.683 158.111Z" fill="#FFBE9D"/>
</svg>
