<svg width="375" height="263" viewBox="0 0 375 263" fill="none" xmlns="http://www.w3.org/2000/svg">
<path d="M366.783 156.629C374.847 154.698 379.821 146.586 377.893 138.511C375.964 130.437 367.863 125.456 359.798 127.387C351.734 129.318 346.759 137.43 348.688 145.505C350.617 153.58 358.718 158.56 366.783 156.629Z" fill="white"/>
<path d="M363.289 126.982L363.53 127.013L364.245 127.066L364.77 127.097L365.395 127.197C365.917 127.268 366.433 127.375 366.94 127.518C368.338 127.874 369.675 128.437 370.906 129.191C374.166 131.178 376.546 134.335 377.563 138.018C378.58 141.701 378.157 145.634 376.38 149.016C376.033 149.649 375.641 150.258 375.208 150.836C374.772 151.429 374.294 151.992 373.78 152.519C373.239 153.043 372.663 153.53 372.056 153.976C370.817 154.895 369.437 155.606 367.969 156.08C364.933 157.104 361.645 157.104 358.608 156.08C357.141 155.604 355.761 154.893 354.521 153.976C353.916 153.528 353.341 153.041 352.798 152.519C352.286 151.989 351.809 151.427 351.369 150.836C350.936 150.258 350.544 149.649 350.197 149.016C348.63 146.022 348.099 142.592 348.69 139.264C349.079 137.186 349.903 135.215 351.107 133.479C352.311 131.743 353.868 130.282 355.677 129.191C356.907 128.437 358.244 127.873 359.643 127.518C360.149 127.375 360.666 127.268 361.187 127.197L361.812 127.097L362.338 127.066L363.052 127.013L363.294 126.982C363.214 126.97 363.132 126.97 363.052 126.982H362.338H361.812C361.618 126.982 361.408 127.034 361.182 127.066C360.65 127.121 360.123 127.218 359.606 127.355C358.186 127.691 356.825 128.243 355.572 128.991C353.721 130.083 352.124 131.556 350.887 133.314C349.649 135.072 348.8 137.073 348.395 139.185C347.891 141.854 348.11 144.609 349.031 147.164C349.275 147.844 349.565 148.507 349.898 149.147C350.609 150.457 351.493 151.665 352.525 152.74C353.077 153.277 353.665 153.776 354.284 154.234C355.558 155.183 356.977 155.919 358.487 156.411C361.597 157.463 364.965 157.463 368.074 156.411C369.584 155.918 371.003 155.183 372.277 154.234C372.898 153.777 373.486 153.278 374.037 152.74C374.563 152.2 375.051 151.623 375.497 151.015C375.939 150.422 376.338 149.798 376.69 149.147C377.024 148.507 377.314 147.845 377.557 147.164C378.478 144.609 378.697 141.854 378.192 139.185C377.788 137.073 376.938 135.072 375.701 133.314C374.464 131.556 372.867 130.083 371.016 128.991C369.763 128.242 368.402 127.69 366.982 127.355C366.464 127.221 365.937 127.124 365.406 127.066C365.18 127.034 364.97 126.997 364.775 126.982H364.25H363.53C363.45 126.97 363.369 126.97 363.289 126.982Z" fill="#E0E0E0"/>
<path d="M352.651 121.716C352.148 121.715 351.657 121.864 351.239 122.142C350.821 122.421 350.495 122.818 350.302 123.282C350.109 123.747 350.059 124.258 350.157 124.751C350.254 125.245 350.496 125.698 350.851 126.053C351.206 126.409 351.659 126.651 352.152 126.749C352.644 126.847 353.155 126.796 353.619 126.603C354.083 126.41 354.479 126.084 354.757 125.665C355.036 125.247 355.184 124.755 355.183 124.252C355.183 123.579 354.916 122.934 354.441 122.459C353.966 121.984 353.322 121.716 352.651 121.716Z" fill="white"/>
<path d="M352.651 121.716C352.651 121.748 352.877 121.753 353.25 121.864C353.777 122.023 354.238 122.35 354.563 122.795C354.825 123.149 354.984 123.57 355.022 124.01C355.059 124.449 354.974 124.891 354.776 125.285C354.578 125.679 354.274 126.01 353.899 126.242C353.524 126.473 353.091 126.596 352.651 126.596C352.21 126.596 351.778 126.473 351.403 126.242C351.027 126.01 350.724 125.679 350.525 125.285C350.327 124.891 350.242 124.449 350.28 124.01C350.317 123.57 350.476 123.149 350.738 122.795C351.062 122.35 351.521 122.023 352.047 121.864C352.425 121.753 352.651 121.748 352.651 121.716C352.442 121.663 352.223 121.663 352.015 121.716C351.428 121.834 350.902 122.159 350.534 122.632C350.253 122.983 350.067 123.401 349.993 123.844C349.92 124.288 349.961 124.744 350.113 125.167C350.3 125.691 350.645 126.144 351.099 126.464C351.553 126.784 352.095 126.956 352.651 126.956C353.206 126.956 353.748 126.784 354.202 126.464C354.657 126.144 355.001 125.691 355.188 125.167C355.34 124.744 355.382 124.288 355.308 123.844C355.235 123.401 355.049 122.983 354.768 122.632C354.398 122.16 353.873 121.835 353.286 121.716C353.078 121.662 352.859 121.662 352.651 121.716Z" fill="#E0E0E0"/>
<path d="M363.089 148.953C362.826 148.969 362.562 148.932 362.314 148.843C362.066 148.754 361.838 148.616 361.645 148.436C361.452 148.257 361.298 148.04 361.191 147.798C361.084 147.557 361.028 147.297 361.025 147.033C361.107 146.542 361.36 146.096 361.739 145.775C362.119 145.453 362.6 145.277 363.097 145.277C363.594 145.277 364.075 145.453 364.455 145.775C364.834 146.096 365.087 146.542 365.169 147.033C365.165 147.298 365.107 147.559 364.999 147.8C364.891 148.042 364.734 148.259 364.54 148.439C364.345 148.618 364.117 148.756 363.867 148.845C363.618 148.933 363.353 148.97 363.089 148.953ZM364.476 144.124H361.718L361.025 135.987H365.154L364.476 144.124Z" fill="#E0E0E0"/>
<path d="M22.7781 156.064C28.0034 158.112 33.6332 158.915 39.2217 158.407C44.8102 157.899 50.2039 156.096 54.9758 153.14C45.2624 150.531 31.4251 150.925 22.7781 156.064Z" fill="#EBEBEB"/>
<path d="M16.9627 146.633C21.4239 148.381 26.2305 149.064 31.0013 148.629C35.7722 148.193 40.3761 146.651 44.4481 144.124C36.1584 141.91 24.3489 142.246 16.9627 146.633Z" fill="#EBEBEB"/>
<path d="M13.175 138.038C16.7465 139.439 20.5947 139.987 24.4145 139.639C28.2343 139.291 31.9207 138.057 35.1812 136.034C28.52 134.251 19.064 134.525 13.175 138.038Z" fill="#EBEBEB"/>
<path d="M53.6099 121.832C56.1557 126.925 57.4812 132.543 57.4812 138.238C57.4812 143.934 56.1557 149.551 53.6099 154.644C50.0849 145.066 49.2181 131.042 53.6099 121.832Z" fill="#EBEBEB"/>
<path d="M43.5708 116.825C45.742 121.172 46.8723 125.966 46.8723 130.827C46.8723 135.687 45.742 140.481 43.5708 144.829C40.5606 136.65 39.8252 124.688 43.5708 116.825Z" fill="#EBEBEB"/>
<path d="M34.5613 113.769C36.2999 117.251 37.205 121.092 37.205 124.986C37.205 128.879 36.2999 132.72 34.5613 136.202C32.1501 129.654 31.5564 120.065 34.5613 113.769Z" fill="#EBEBEB"/>
<path d="M9.79187 114.936C13.217 122.863 22.6205 130.653 31.0416 132.52C26.9125 123.284 18.8013 116.188 9.79187 114.936Z" fill="#EBEBEB"/>
<path d="M67.6468 166.248C67.4787 166.432 58.1908 158.184 46.8436 147.838C35.4964 137.491 26.4817 128.923 26.6446 128.738C26.8074 128.554 36.1268 136.802 47.4478 147.148C58.7687 157.495 67.8149 166.063 67.6468 166.248Z" fill="#EBEBEB"/>
<path d="M267.179 73.3823C266.104 80.1416 266.616 87.0586 268.674 93.5855C270.732 100.112 274.28 106.07 279.036 110.986C279.629 98.746 275.542 82.3558 267.179 73.3823Z" fill="#EBEBEB"/>
<path d="M276.882 64.0037C275.966 69.7713 276.404 75.673 278.16 81.2419C279.916 86.8108 282.943 91.8942 287 96.0897C287.509 85.6539 284.021 71.6623 276.882 64.0037Z" fill="#EBEBEB"/>
<path d="M286.117 57.2446C285.382 61.8669 285.732 66.5971 287.139 71.0607C288.546 75.5242 290.971 79.5984 294.223 82.9608C294.617 74.5816 291.833 63.3778 286.117 57.2446Z" fill="#EBEBEB"/>
<path d="M315.904 101.239C310.506 105.595 304.17 108.633 297.397 110.112C290.624 111.591 283.6 111.47 276.882 109.76C287.362 103.096 303.795 98.3936 315.904 101.239Z" fill="#EBEBEB"/>
<path d="M319.25 87.9682C314.643 91.6889 309.233 94.2835 303.45 95.5462C297.667 96.8089 291.669 96.705 285.933 95.2428C294.89 89.5357 308.927 85.5434 319.25 87.9682Z" fill="#EBEBEB"/>
<path d="M320.537 76.4278C316.848 79.4049 312.517 81.481 307.888 82.4917C303.259 83.5024 298.458 83.4198 293.866 82.2506C301.026 77.685 312.268 74.4869 320.537 76.4278Z" fill="#EBEBEB"/>
<path d="M312.725 47.2032C304.194 53.3469 297.375 66.5811 297.349 77.1063C307.23 69.7844 313.561 58.2703 312.725 47.2032Z" fill="#EBEBEB"/>
<path d="M266.743 129.522C266.496 129.396 273.851 116.12 283.233 99.94C292.616 83.7602 300.417 70.7417 300.679 70.8943C300.942 71.0468 293.556 84.2915 284.184 100.487C274.812 116.683 267.021 129.675 266.743 129.522Z" fill="#EBEBEB"/>
<path d="M320.08 196.829C315.11 194.646 309.701 193.652 304.281 193.926C298.861 194.2 293.579 195.734 288.854 198.407C298.153 201.311 311.533 201.458 320.08 196.829Z" fill="#EBEBEB"/>
<path d="M325.333 206.192C321.091 204.331 316.475 203.485 311.849 203.72C307.223 203.954 302.716 205.264 298.683 207.544C306.616 209.99 318.036 210.121 325.333 206.192Z" fill="#EBEBEB"/>
<path d="M328.674 214.608C325.278 213.117 321.581 212.439 317.877 212.627C314.173 212.815 310.564 213.864 307.335 215.692C313.681 217.68 322.828 217.764 328.674 214.608Z" fill="#EBEBEB"/>
<path d="M288.98 228.721C286.72 223.699 285.658 218.22 285.879 212.717C286.099 207.213 287.596 201.837 290.252 197.013C293.288 206.408 293.577 219.989 288.98 228.721Z" fill="#EBEBEB"/>
<path d="M298.489 233.944C296.563 229.658 295.659 224.981 295.851 220.285C296.042 215.588 297.323 211.001 299.592 206.886C302.156 214.903 302.413 226.496 298.489 233.944Z" fill="#EBEBEB"/>
<path d="M307.078 237.226C305.533 233.794 304.807 230.049 304.959 226.287C305.11 222.526 306.134 218.851 307.95 215.555C310.02 221.972 310.225 231.272 307.078 237.226Z" fill="#EBEBEB"/>
<path d="M331.054 237.068C328.049 229.278 319.266 221.388 311.202 219.263C314.827 228.342 322.397 235.511 331.054 237.068Z" fill="#EBEBEB"/>
<path d="M277.124 185.262C277.292 185.094 285.975 193.421 296.519 203.862C307.062 214.303 315.468 222.914 315.3 223.082C315.131 223.25 306.448 214.929 295.904 204.483C285.361 194.036 276.955 185.431 277.124 185.262Z" fill="#EBEBEB"/>
<path d="M295.247 12.7134H80.1865V249.119H295.247V12.7134Z" fill="#FAFAFA"/>
<path d="M44.4254 65.2381C53.0871 62.5552 57.9365 53.3496 55.2569 44.677C52.5773 36.0043 43.3835 31.1487 34.7218 33.8317C26.0601 36.5147 21.2107 45.7202 23.8903 54.3929C26.5698 63.0655 35.7637 67.9211 44.4254 65.2381Z" fill="white"/>
<path d="M39.552 33.0959C39.6404 33.1133 39.7299 33.1239 39.8199 33.1275L40.5974 33.1854L41.17 33.2274C41.3802 33.2274 41.6061 33.2958 41.853 33.3326C42.4244 33.41 42.9897 33.5277 43.5445 33.6851C45.073 34.0708 46.5342 34.6862 47.8785 35.5103C51.1218 37.4586 53.5866 40.4764 54.85 44.0459C56.1134 47.6154 56.0966 51.5138 54.8024 55.0722C54.5383 55.7938 54.2259 56.4967 53.8673 57.1762C53.4903 57.869 53.0637 58.5335 52.5908 59.1645C52.1078 59.815 51.5813 60.4318 51.0148 61.0108C50.4227 61.577 49.7945 62.1042 49.1341 62.5888C47.7781 63.5975 46.2685 64.3808 44.6635 64.9084C43.0096 65.4437 41.2848 65.7274 39.5468 65.75C37.8074 65.7271 36.0812 65.4452 34.4248 64.9137C32.8304 64.3839 31.3315 63.6006 29.9857 62.594C29.323 62.1123 28.6946 61.5851 28.105 61.016C27.54 60.4357 27.0136 59.8189 26.529 59.1698C25.5842 57.9269 24.8381 56.5445 24.3173 55.0722C23.0299 51.5127 23.0169 47.616 24.2808 44.0479C25.5446 40.4799 28.0068 37.4621 31.2465 35.5103C32.5909 34.6778 34.0541 34.0553 35.5857 33.664C36.1387 33.5062 36.7022 33.3885 37.2721 33.3116C37.519 33.2748 37.7449 33.2274 37.955 33.2064L38.5276 33.1643L39.3104 33.138L39.573 33.1065C39.4841 33.095 39.394 33.095 39.3051 33.1065H38.5224L37.976 33.138C37.7606 33.138 37.5347 33.1959 37.2826 33.2274C36.7065 33.2906 36.1359 33.3961 35.5752 33.543C34.0214 33.9091 32.5331 34.5123 31.1624 35.3314C27.84 37.286 25.3055 40.3433 23.9986 43.9731C22.6917 47.6028 22.6948 51.576 24.0074 55.2037C24.2729 55.9493 24.5907 56.6753 24.9582 57.3761C25.344 58.0863 25.7793 58.7683 26.2611 59.417C26.7429 60.0815 27.2695 60.7125 27.8371 61.3053C28.4413 61.8924 29.0836 62.4389 29.7598 62.9412C31.1482 63.975 32.6929 64.7794 34.3354 65.324C36.034 65.8709 37.8047 66.1599 39.5888 66.1813C41.3734 66.1615 43.1447 65.8707 44.8421 65.3187C46.4869 64.7796 48.0325 63.9747 49.4178 62.9359C50.0972 62.4397 50.7398 61.8947 51.3405 61.3053C51.9052 60.7099 52.4316 60.0792 52.9165 59.417C53.3964 58.767 53.8317 58.0851 54.2193 57.3761C54.5831 56.6742 54.899 55.9484 55.1649 55.2037C56.1714 52.4095 56.4126 49.3965 55.8636 46.4774C55.4193 44.1672 54.4899 41.978 53.1368 40.0546C51.7837 38.1313 50.038 36.5177 48.0151 35.3209C46.6445 34.5018 45.1561 33.8986 43.6023 33.5325C43.0399 33.3856 42.4675 33.2801 41.8897 33.2169C41.6428 33.1854 41.4117 33.1433 41.2016 33.1275H40.6237H39.8409C39.7466 33.1036 39.6493 33.093 39.552 33.0959Z" fill="#E0E0E0"/>
<path d="M51.9814 65.8079C51.4328 65.8079 50.8965 65.9708 50.4404 66.2759C49.9842 66.5811 49.6287 67.0148 49.4188 67.5223C49.2088 68.0298 49.1539 68.5882 49.2609 69.127C49.368 69.6657 49.6321 70.1606 50.0201 70.549C50.408 70.9374 50.9022 71.2019 51.4403 71.3091C51.9783 71.4162 52.536 71.3612 53.0429 71.151C53.5497 70.9408 53.9829 70.5848 54.2877 70.1281C54.5925 69.6714 54.7552 69.1344 54.7552 68.5851C54.7559 68.2202 54.6846 67.8588 54.5454 67.5215C54.4063 67.1842 54.202 66.8778 53.9443 66.6198C53.6866 66.3617 53.3805 66.1572 53.0437 66.0179C52.7069 65.8785 52.3459 65.8072 51.9814 65.8079Z" fill="white"/>
<path d="M51.9814 65.8079C51.9814 65.8447 52.2283 65.8447 52.6433 65.971C53.2194 66.1459 53.7229 66.5042 54.0775 66.9914C54.3701 67.3821 54.5484 67.8468 54.5922 68.3332C54.636 68.8197 54.5436 69.3087 54.3255 69.7456C54.1073 70.1824 53.772 70.5498 53.357 70.8066C52.9421 71.0634 52.4639 71.1994 51.9761 71.1994C51.4883 71.1994 51.0102 71.0634 50.5952 70.8066C50.1803 70.5498 49.8449 70.1824 49.6268 69.7456C49.4086 69.3087 49.3163 68.8197 49.3601 68.3332C49.4039 67.8468 49.5821 67.3821 49.8748 66.9914C50.2285 66.5033 50.7323 66.1449 51.3089 65.971C51.7187 65.8447 51.9709 65.8447 51.9656 65.8079C51.7381 65.7502 51.4997 65.7502 51.2722 65.8079C50.6321 65.9398 50.0591 66.2937 49.6542 66.8073C49.3486 67.1922 49.1459 67.6485 49.065 68.1335C48.9841 68.6184 49.0278 69.1159 49.1919 69.5793C49.3946 70.1537 49.7702 70.651 50.267 71.0028C50.7637 71.3546 51.3572 71.5435 51.9656 71.5435C52.574 71.5435 53.1675 71.3546 53.6643 71.0028C54.161 70.651 54.5366 70.1537 54.7394 69.5793C54.9027 69.1161 54.9464 68.6192 54.8665 68.1345C54.7866 67.6499 54.5857 67.1933 54.2823 66.8073C53.8765 66.2947 53.3039 65.9411 52.6643 65.8079C52.4399 65.7535 52.2058 65.7535 51.9814 65.8079Z" fill="#E0E0E0"/>
<path d="M39.946 57.0289C39.6571 57.0507 39.3668 57.0124 39.0934 56.9164C38.82 56.8205 38.5693 56.669 38.3572 56.4714C38.145 56.2738 37.976 56.0344 37.8607 55.7683C37.7454 55.5021 37.6863 55.215 37.6871 54.9249C37.7345 54.3556 37.9939 53.825 38.4138 53.4382C38.8337 53.0514 39.3834 52.8368 39.9539 52.8368C40.5244 52.8368 41.0741 53.0514 41.494 53.4382C41.9139 53.825 42.1733 54.3556 42.2207 54.9249C42.2156 55.2146 42.1519 55.5002 42.0336 55.7646C41.9152 56.029 41.7446 56.2667 41.5321 56.4633C41.3195 56.6599 41.0694 56.8114 40.7968 56.9086C40.5243 57.0058 40.2348 57.0467 39.946 57.0289ZM41.4642 51.7689H38.4436L37.6871 42.848H42.1787L41.4642 51.7689Z" fill="#E0E0E0"/>
<path d="M142.47 122.411H114.107V129.922H142.47V122.411Z" fill="#E0E0E0"/>
<path d="M130.482 137.812C130.474 137.767 130.474 137.72 130.482 137.675C130.482 137.575 130.482 137.449 130.482 137.291C130.482 136.939 130.482 136.444 130.482 135.813C130.482 134.519 130.482 132.657 130.435 130.301L130.524 130.39L102.156 130.448C102.219 130.38 102.009 130.59 102.298 130.301V134.13C102.298 135.382 102.298 136.618 102.298 137.812L102.156 137.675L122.371 137.738L128.339 137.775H129.951H130.372H130.524C130.481 137.783 130.436 137.783 130.393 137.775H129.988H128.412L122.481 137.817L102.167 137.88H102.025V130.327C102.314 130.038 102.103 130.248 102.172 130.185L130.54 130.238H130.624V130.327C130.624 132.699 130.587 134.582 130.577 135.892C130.577 136.518 130.577 137.002 130.577 137.349C130.577 137.502 130.577 137.623 130.577 137.723C130.547 137.755 130.516 137.785 130.482 137.812Z" fill="#263238"/>
<path d="M271.644 198.691H243.282V206.203H271.644V198.691Z" fill="#E0E0E0"/>
<path d="M180.1 179.361H151.737V186.872H180.1V179.361Z" fill="#EBEBEB"/>
<path d="M259.667 214.119C259.667 214.119 259.667 214.066 259.667 213.982V213.593C259.667 213.24 259.667 212.746 259.667 212.115C259.667 210.821 259.667 208.959 259.619 206.602L259.703 206.692L231.335 206.75L231.483 206.602V208.522C231.483 209.159 231.483 209.79 231.483 210.416V214.098L231.341 213.956L251.556 214.019L257.518 214.061H259.136H259.556C259.605 214.053 259.655 214.053 259.703 214.061H259.572H259.168H257.592L251.661 214.098L231.346 214.161H231.204V206.608L231.346 206.466L259.714 206.518H259.803V206.608C259.803 208.98 259.766 210.863 259.756 212.173C259.756 212.799 259.756 213.282 259.756 213.635C259.756 213.782 259.756 213.908 259.756 214.003C259.732 214.046 259.702 214.085 259.667 214.119Z" fill="#263238"/>
<path d="M180.1 63.162H151.737V70.6733H180.1V63.162Z" fill="#E0E0E0"/>
<path d="M128.381 31.56H100.018V39.0713H128.381V31.56Z" fill="#EBEBEB"/>
<path d="M168.106 78.5896C168.106 78.5896 168.106 78.537 168.106 78.4529C168.106 78.3687 168.106 78.2214 168.106 78.0636C168.106 77.7112 168.106 77.2168 168.106 76.5856C168.106 75.2916 168.08 73.4296 168.059 71.0731L168.143 71.1625L139.775 71.2204L139.922 71.0731V72.993C139.922 73.6295 139.922 74.2607 139.922 74.8866V78.5686L139.78 78.4266L159.995 78.4897L165.963 78.5318H167.576H167.996C168.045 78.5241 168.094 78.5241 168.143 78.5318H168.012H167.607H166.031L160.1 78.5686L139.786 78.6317H139.644V71.0784L139.786 70.9363L168.154 70.9889H168.243V71.0784C168.243 73.4506 168.206 75.3337 168.196 76.6434C168.196 77.2694 168.196 77.7533 168.196 78.1057C168.196 78.253 168.196 78.3792 168.196 78.4739C168.175 78.519 168.145 78.5586 168.106 78.5896Z" fill="#263238"/>
<path d="M266.359 89.0412C266.356 88.9957 266.356 88.95 266.359 88.9045C266.359 88.8045 266.359 88.673 266.359 88.5152C266.359 88.1628 266.359 87.6684 266.359 87.0372C266.359 85.7432 266.359 83.8812 266.312 81.5247L266.401 81.6141L238.033 81.672C238.096 81.6036 237.886 81.814 238.175 81.5247V85.3382C238.175 86.5901 238.175 87.8262 238.175 89.0202L238.039 88.8782L258.248 88.9413L264.216 88.9834H265.829H266.249C266.3 88.976 266.351 88.976 266.401 88.9834H266.27H265.866H264.29L258.353 89.0202L238.044 89.0886H237.902V88.9466C237.902 87.7368 237.902 86.5007 237.902 85.2646V81.53C238.191 81.2407 237.981 81.4511 238.049 81.3879L266.417 81.4405H266.507V81.53C266.507 83.9022 266.464 85.7853 266.454 87.095C266.454 87.721 266.454 88.2049 266.454 88.5573V88.9255C266.365 89.0044 266.359 89.0412 266.359 89.0412Z" fill="#263238"/>
<path d="M270.205 81.53C270.201 81.4828 270.201 81.4352 270.205 81.388C270.205 81.2828 270.205 81.1513 270.205 80.9882C270.205 80.62 270.205 80.1203 270.205 79.4839C270.205 78.1689 270.173 76.3279 270.147 74.0187L270.252 74.1239L253.21 74.1608L253.352 74.0187V77.8848C253.352 79.142 253.352 80.357 253.352 81.5248L253.216 81.388L265.403 81.4511L268.955 81.4932H269.916H270.257C270.154 81.5007 270.051 81.5007 269.947 81.4932H269.018L265.498 81.53L253.216 81.5931H253.079V81.53C253.079 80.3623 253.079 79.149 253.079 77.8901C253.079 77.2589 253.079 76.6224 253.079 75.9755V74.024L253.226 73.8767L270.268 73.9188H270.373V74.024C270.373 76.3384 270.331 78.232 270.315 79.5523C270.315 80.1782 270.315 80.6726 270.315 81.0356C270.288 81.2025 270.252 81.3676 270.205 81.53Z" fill="#263238"/>
<path d="M231.057 147.127C231.053 147.082 231.053 147.036 231.057 146.991C231.057 146.891 231.057 146.765 231.057 146.607C231.057 146.249 231.057 145.76 231.057 145.129C231.057 143.829 231.057 141.973 231.01 139.616L231.099 139.7L202.731 139.758L202.873 139.616V143.419C202.873 144.676 202.873 145.907 202.873 147.101L202.731 146.959L222.946 147.022L228.914 147.064H230.526H230.947H231.099H230.968H230.563H228.987L223.056 147.106L202.742 147.17H202.6V139.627L202.747 139.479L231.115 139.537H231.204V139.627C231.204 141.999 231.167 143.882 231.157 145.192C231.157 145.812 231.157 146.302 231.157 146.649C231.157 146.801 231.157 146.922 231.157 147.017C231.126 147.056 231.093 147.093 231.057 147.127Z" fill="#263238"/>
<path d="M247.988 35.3261C247.982 35.2808 247.982 35.2347 247.988 35.1894V34.8001C247.988 34.4477 247.988 33.9533 247.988 33.3221C247.988 32.0281 247.962 30.1661 247.941 27.8096L248.031 27.899L219.663 27.9569C219.726 27.8885 219.515 28.0989 219.804 27.8096V31.6231C219.804 32.875 219.804 34.1111 219.804 35.3051L219.663 35.1631L239.877 35.2262L245.845 35.2683H247.458H247.878C247.929 35.2613 247.98 35.2613 248.031 35.2683H247.899H247.495H245.919L239.988 35.3051L219.673 35.3682H219.531V27.8149C219.82 27.5256 219.61 27.736 219.678 27.6728L248.046 27.7254H248.13V27.8149C248.13 30.1871 248.094 32.0702 248.083 33.3799C248.083 34.0059 248.083 34.4898 248.083 34.8422C248.083 34.9895 248.083 35.1105 248.083 35.2104C248.054 35.2511 248.023 35.2898 247.988 35.3261Z" fill="#263238"/>
<path d="M149.058 239.393C149.058 239.393 149.058 239.346 149.058 239.256C149.058 239.167 149.058 239.03 149.058 238.872C149.058 238.52 149.058 238.026 149.058 237.394C149.058 236.095 149.026 234.238 149.005 231.882L149.095 231.966L120.727 232.024L120.868 231.882V239.383L120.727 239.241L140.941 239.304L146.904 239.346H148.517H148.942H149.089C149.046 239.351 149.002 239.351 148.958 239.346H148.553H146.977L141.041 239.388L120.732 239.451H120.59V239.309C120.59 238.099 120.59 236.872 120.59 235.627V231.824L120.737 231.677L149.105 231.735H149.194V231.824C149.194 234.196 149.158 236.079 149.147 237.389C149.147 238.01 149.147 238.499 149.147 238.846C149.147 238.999 149.147 239.12 149.147 239.214C149.147 239.309 149.063 239.398 149.058 239.393Z" fill="#263238"/>
<path d="M77.4863 96.5052L67.0269 109.497C69.3699 113.004 71.7112 116.526 74.0507 120.065C76.2543 116.604 77.7 112.715 78.2922 108.654C78.8845 104.593 78.6098 100.452 77.4863 96.5052Z" fill="#263238"/>
<path d="M41.2856 81.2775C44.2327 78.5002 48.3146 77.1484 52.3544 76.917C56.3942 76.6855 60.4288 77.4903 64.332 78.5686C66.5226 79.1735 68.7343 79.8889 70.5519 81.2565C73.8668 83.7497 77.5599 87.0793 78.6 91.0927C80.6593 99.0405 79.6507 107.125 78.7629 109.355C77.6334 112.217 74.3764 113.769 71.6499 115.194L36.9779 91.1453C37.0064 89.2966 37.402 87.4721 38.1415 85.778C38.8811 84.0839 39.9499 82.5541 41.2856 81.2775Z" fill="#263238"/>
<path d="M37.7816 86.6585L43.865 83.8497C42.5464 93.081 46.5494 112.348 46.8436 121.669C43.6023 118.876 35.4281 109.881 34.6454 105.663C33.8626 101.444 30.0172 87.9314 37.7816 86.6585Z" fill="#263238"/>
<path d="M37.6661 101.171C36.4 94.68 38.6222 85.738 45.1521 84.7807L60.828 84.686C65.8554 84.6597 70.0371 87.842 71.6446 92.576C71.7234 92.8127 71.6446 92.5129 71.7129 92.697L73.8142 106.799L79.6665 129.417C78.8049 135.876 70.2577 139.937 61.968 143.619C61.7736 143.093 60.2501 138.28 60.2501 138.28C60.2501 138.28 58.1015 129.864 58.1015 129.901C58.1015 129.938 47.3742 131.211 42.9352 120.996C40.713 115.941 39.0267 108.382 37.6661 101.171Z" fill="#FFBE9D"/>
<path d="M45.068 108.119C45.1531 108.479 45.3759 108.791 45.6884 108.987C46.0008 109.184 46.378 109.25 46.7386 109.171C47.0916 109.106 47.4043 108.903 47.6082 108.607C47.8121 108.312 47.8904 107.947 47.826 107.593C47.7396 107.234 47.5166 106.924 47.2045 106.727C46.8924 106.53 46.5159 106.464 46.1554 106.541C45.98 106.572 45.8125 106.638 45.6626 106.734C45.5126 106.831 45.3834 106.956 45.2822 107.103C45.181 107.249 45.11 107.415 45.0732 107.589C45.0364 107.764 45.0347 107.944 45.068 108.119Z" fill="#263238"/>
<path d="M40.3453 104.926C40.5606 105.058 41.3959 104.027 42.8616 103.648C44.3273 103.27 45.5986 103.732 45.7089 103.512C45.7667 103.412 45.5145 103.133 44.9577 102.912C44.208 102.636 43.3913 102.599 42.6199 102.807C41.8547 102.999 41.1714 103.432 40.671 104.043C40.3085 104.506 40.2402 104.869 40.3453 104.926Z" fill="#263238"/>
<path d="M57.697 104.911C57.7822 105.27 58.005 105.582 58.3174 105.779C58.6299 105.976 59.007 106.042 59.3676 105.963C59.5433 105.932 59.7113 105.867 59.8616 105.771C60.0118 105.675 60.1414 105.55 60.2427 105.403C60.344 105.256 60.4149 105.09 60.4514 104.915C60.4879 104.74 60.4891 104.56 60.455 104.385C60.3711 104.025 60.1493 103.714 59.8377 103.517C59.5261 103.32 59.1497 103.254 58.7897 103.333C58.6141 103.364 58.4464 103.429 58.2963 103.526C58.1461 103.622 58.0165 103.747 57.9149 103.894C57.8133 104.04 57.7418 104.206 57.7044 104.38C57.667 104.555 57.6645 104.735 57.697 104.911Z" fill="#263238"/>
<path d="M54.2613 101.292C54.4767 101.423 55.312 100.392 56.7829 100.014C58.2539 99.6349 59.5147 100.098 59.6302 99.8768C59.688 99.7769 59.4306 99.4981 58.8738 99.2772C58.1241 99.0012 57.3074 98.9644 56.536 99.172C55.7727 99.3651 55.0913 99.7984 54.5923 100.408C54.2613 100.871 54.172 101.229 54.2613 101.292Z" fill="#263238"/>
<path d="M52.6853 114.021C52.6853 113.937 51.7187 114.021 50.19 114.205C49.8065 114.263 49.4335 114.279 49.3022 114.042C49.1713 113.662 49.1584 113.251 49.2654 112.864C49.3862 111.864 49.5071 110.818 49.6384 109.708C50.127 105.242 50.3791 101.613 50.2005 101.592C50.0219 101.571 49.4808 105.2 49.008 109.655C48.8977 110.755 48.7874 111.801 48.6876 112.811C48.5682 113.324 48.6333 113.862 48.8714 114.331C48.9587 114.451 49.0725 114.548 49.2038 114.615C49.3351 114.683 49.4803 114.719 49.6279 114.721C49.8509 114.726 50.0736 114.702 50.2898 114.647C51.7818 114.337 52.6853 114.105 52.6853 114.021Z" fill="#263238"/>
<path d="M71.2086 122.458C71.2086 122.458 69.6326 130.674 58.7529 132.426L58.0963 129.922C63.0731 128.698 67.6125 126.114 71.2086 122.458Z" fill="#FF9A6C"/>
<path d="M53.3525 95.8635C53.5994 96.2264 55.0178 95.6583 56.7935 95.4216C58.5691 95.1849 60.082 95.2901 60.2186 94.8956C60.2764 94.6958 59.9349 94.3696 59.273 94.1435C58.398 93.8602 57.4699 93.7807 56.5595 93.9111C55.6491 94.0414 54.7804 94.3782 54.0197 94.8956C53.4786 95.2954 53.2422 95.6899 53.3525 95.8635Z" fill="#263238"/>
<path d="M39.6518 100.308C39.9985 100.576 40.9179 99.9663 42.1314 99.6349C43.3449 99.3036 44.4323 99.2773 44.5794 98.867C44.6425 98.6724 44.3903 98.3831 43.8597 98.1832C43.1586 97.9598 42.4069 97.9505 41.7005 98.1566C40.9941 98.3627 40.365 98.7748 39.8935 99.3404C39.552 99.7927 39.4995 100.177 39.6518 100.308Z" fill="#263238"/>
<path d="M38.0233 90.6982C38.2544 88.9308 39.7569 87.5106 41.459 86.9741C43.1884 86.522 45.0108 86.5731 46.7123 87.1214C53.9987 89.136 59.5515 97.1154 66.7958 99.293C68.5714 99.819 70.3523 98.4462 71.9808 99.3404C73.6094 100.235 74.9752 101.97 74.681 103.822C75.2877 102.475 75.6964 101.047 75.8946 99.5823C75.9888 98.8484 75.9255 98.1028 75.709 97.3953C75.4925 96.6878 75.1277 96.0347 74.639 95.4795C73.851 94.68 72.7111 94.2119 72.1752 93.2283C71.7024 92.3656 71.818 91.3031 71.529 90.3616C71.1708 89.4196 70.5947 88.576 69.848 87.8999C66.2705 84.2179 61.8787 81.1566 56.9038 79.8521C53.6473 78.9447 50.2052 78.9447 46.9487 79.8521C43.6914 80.8052 40.8817 82.8928 39.0267 85.738C37.976 87.4107 36.8518 89.1412 38.0391 90.7245" fill="#263238"/>
<path d="M72.1962 100.697C72.2277 100.366 77.2499 96.9155 78.8575 102.801C80.4335 108.514 74.3501 108.893 74.2976 108.729C74.245 108.566 72.1962 100.697 72.1962 100.697Z" fill="#FFBF9D"/>
<path d="M75.4743 106.084C75.4743 106.057 75.5899 106.126 75.779 106.157C76.0444 106.192 76.313 106.125 76.5302 105.968C77.0556 105.584 77.3235 104.49 77.0556 103.448C76.9381 102.955 76.7099 102.494 76.3884 102.102C76.2883 101.937 76.1492 101.799 75.9834 101.701C75.8175 101.603 75.63 101.547 75.4375 101.539C75.3131 101.537 75.1921 101.579 75.0959 101.658C74.9997 101.737 74.9346 101.848 74.9122 101.97C74.8807 102.149 74.9437 102.254 74.9122 102.27C74.8807 102.286 74.7651 102.212 74.7441 101.96C74.739 101.81 74.7854 101.664 74.8754 101.544C74.938 101.462 75.0169 101.393 75.1073 101.342C75.1977 101.291 75.2976 101.26 75.4008 101.25C75.6476 101.232 75.8949 101.278 76.1186 101.384C76.3423 101.49 76.5347 101.652 76.6773 101.855C77.0562 102.282 77.3233 102.797 77.4548 103.354C77.728 104.516 77.4548 105.752 76.6721 106.215C76.5311 106.302 76.3722 106.356 76.2075 106.372C76.0428 106.388 75.8765 106.367 75.7212 106.31C75.5216 106.215 75.4585 106.099 75.4743 106.084Z" fill="#FF9A6C"/>
<path d="M73.6987 97.1574C73.5646 97.136 73.4328 97.1025 73.3047 97.0575C73.0473 96.9733 72.6638 96.8734 72.1857 96.6946C70.8431 96.163 69.561 95.4894 68.3613 94.6852C66.6041 93.4696 64.9152 92.1579 63.3023 90.756C61.3508 89.0314 59.2578 87.4742 57.0456 86.1009C55.8831 85.427 54.6499 84.8836 53.3683 84.4808C52.1727 84.1205 50.9379 83.9068 49.6909 83.8444C47.5711 83.7298 45.4487 84.0153 43.4342 84.686C42.0726 85.1316 40.776 85.756 39.5783 86.5428C39.1475 86.811 38.8376 87.0688 38.6222 87.216C38.5148 87.3023 38.4006 87.3797 38.2807 87.4475C38.372 87.3455 38.4742 87.2538 38.5854 87.174C38.8821 86.9165 39.1944 86.6776 39.5205 86.4586C40.7046 85.6276 42.0013 84.9705 43.3712 84.5071C45.4049 83.7989 47.5563 83.4917 49.7067 83.6024C50.9764 83.6581 52.2344 83.8701 53.4523 84.2336C54.753 84.6415 56.0054 85.19 57.1874 85.8695C59.4217 87.2499 61.5311 88.8233 63.4914 90.5719C65.0918 91.9766 66.7628 93.2986 68.4979 94.5327C69.6789 95.3439 70.937 96.0363 72.254 96.5999C72.7215 96.7945 73.105 96.9102 73.3519 97.0102C73.4723 97.0471 73.5885 97.0965 73.6987 97.1574Z" fill="#455A64"/>
<path d="M72.69 99.1563C73.1838 100.697 73.6882 102.312 73.3257 103.89C72.9632 105.468 71.3925 106.894 69.827 106.468C68.5557 106.126 67.8517 104.79 67.3369 103.575C65.8449 100.061 64.6314 96.4369 63.1342 92.9442L72.69 99.1563Z" fill="#263238"/>
<path d="M38.722 87.6053C38.722 87.6369 39.2 87.3791 40.1089 87.1109C41.4 86.7497 42.7501 86.6495 44.0804 86.8163C44.996 86.9183 45.8978 87.1194 46.7701 87.416C47.773 87.7682 48.7537 88.181 49.7067 88.652C51.901 89.7074 53.9595 91.025 55.8373 92.576C56.8302 93.4071 57.7496 94.2908 58.7004 95.0798C59.6073 95.8584 60.6037 96.5258 61.6685 97.068C63.4809 97.9396 65.386 98.6031 67.3474 99.0458C69.0127 99.4351 70.3786 99.6612 71.3242 99.8138L72.4116 99.9768C72.5374 100.005 72.6664 100.016 72.7951 100.008C72.6741 99.9637 72.5493 99.9302 72.4221 99.9085L71.3452 99.6875C70.4101 99.4929 69.0547 99.2352 67.4052 98.8144C65.473 98.3457 63.5985 97.6648 61.8156 96.784C60.7755 96.2482 59.8022 95.5914 58.9158 94.8273C57.9807 94.0435 57.0666 93.1546 56.0632 92.313C54.1587 90.7458 52.0677 89.4208 49.838 88.368C48.871 87.9022 47.8762 87.4964 46.8594 87.153C45.9661 86.8583 45.0429 86.6642 44.1067 86.5743C42.7483 86.4249 41.3738 86.5629 40.0721 86.9794C39.7216 87.0941 39.3808 87.2366 39.0529 87.4054C38.934 87.4566 38.8226 87.5238 38.722 87.6053Z" fill="#455A64"/>
<path d="M71.2821 95.0324C71.4716 95.1286 71.673 95.1994 71.881 95.2428L73.5516 95.7162L74.1137 95.8687C74.3335 95.9336 74.5647 95.9498 74.7914 95.9161C74.9308 95.8944 75.0587 95.8257 75.1538 95.7214C75.2056 95.6637 75.243 95.5945 75.263 95.5196C75.2831 95.4447 75.2853 95.3661 75.2694 95.2901C75.1888 95.0289 75.0291 94.7991 74.8124 94.6326L72.4274 92.3761L72.254 92.6444C72.9235 92.9128 73.6346 93.0623 74.3553 93.0862C75.0676 93.1116 75.7788 93.0119 76.4567 92.7916C76.6321 92.7426 76.7987 92.6663 76.9505 92.5655C77.0412 92.5125 77.1192 92.4404 77.1791 92.354C77.239 92.2677 77.2793 92.1693 77.2972 92.0658C77.305 91.9597 77.2866 91.8533 77.2435 91.756C77.2004 91.6588 77.1341 91.5736 77.0503 91.5082C76.9185 91.4048 76.7779 91.3132 76.63 91.2347C75.6855 90.6999 74.8149 90.0439 74.0401 89.2832C73.3439 88.5581 72.6997 87.7847 72.1122 86.9688C72.2094 87.2241 72.3383 87.4662 72.4957 87.6894C72.8923 88.3213 73.3536 88.9101 73.872 89.4463C74.6459 90.2529 75.5303 90.9454 76.4987 91.5029C76.7666 91.6502 77.024 91.8238 77.024 92.0289C77.024 92.2341 76.6983 92.4024 76.3989 92.4813C75.7523 92.6861 75.075 92.7768 74.3974 92.7496C73.7225 92.7273 73.0564 92.5903 72.4274 92.3445L71.6131 92.0237L72.2593 92.6128L74.6705 94.843C74.8446 94.9673 74.9795 95.1389 75.0593 95.3375C75.0961 95.5005 74.9805 95.632 74.7966 95.6689C74.41 95.6904 74.0229 95.6368 73.6566 95.5111L71.9598 95.1323C71.7388 95.0717 71.5112 95.0381 71.2821 95.0324Z" fill="#455A64"/>
<path d="M54.6869 116.477C54.8836 116.075 55.1799 115.729 55.5477 115.473C55.9154 115.217 56.3425 115.059 56.7882 115.015C57.1073 114.97 57.4322 114.989 57.7436 115.073C58.0549 115.156 58.3464 115.301 58.6006 115.499C58.8425 115.689 59.0195 115.949 59.1071 116.244C59.1946 116.539 59.1884 116.854 59.0892 117.145C58.9153 117.45 58.6557 117.697 58.3428 117.855C58.0299 118.013 57.6774 118.075 57.3293 118.034C56.607 117.953 55.9075 117.732 55.27 117.382C55.077 117.308 54.899 117.199 54.7447 117.061C54.6761 116.995 54.6286 116.909 54.6081 116.816C54.5875 116.722 54.5948 116.625 54.6291 116.535" fill="#FF9A6C"/>
<path d="M57.7233 113.248C57.4921 113.29 57.8336 114.826 56.7567 116.193C55.6797 117.561 53.9987 117.771 54.0354 117.998C54.0354 118.097 54.4662 118.213 55.1649 118.071C56.0709 117.877 56.882 117.375 57.4606 116.651C58.0071 115.96 58.2634 115.082 58.1751 114.205C58.0858 113.553 57.8283 113.216 57.7233 113.248Z" fill="#263238"/>
<path d="M58.1908 131.784C58.1908 131.784 47.2219 137.286 44.3063 144.413C41.3907 151.541 42.0001 156.059 42.8879 163.391C43.7757 170.724 47.6947 198.207 49.5596 202.941C51.0148 206.623 52.9007 211.357 62.6299 209.669C72.3591 207.98 79.6455 206.718 79.6455 206.718V128.954C79.6455 128.954 76.3989 135.519 68.6502 136.134C63.7699 136.523 58.1908 131.784 58.1908 131.784Z" fill="#6D6CD9"/>
<path d="M58.3589 191.764C58.601 191.651 58.8524 191.56 59.1102 191.49C59.5987 191.327 60.3132 191.117 61.2115 190.885C63.5304 190.28 65.8901 189.844 68.272 189.581C70.6541 189.314 73.0523 189.22 75.448 189.297C76.3674 189.328 77.1081 189.371 77.6229 189.423C77.8882 189.434 78.152 189.469 78.4109 189.528C78.1454 189.555 77.8779 189.555 77.6124 189.528C77.0871 189.528 76.3621 189.492 75.4428 189.481C73.0579 189.464 70.674 189.587 68.3035 189.849C65.9338 190.118 63.5816 190.523 61.2588 191.064C60.3657 191.275 59.646 191.453 59.1575 191.59C58.898 191.676 58.6304 191.734 58.3589 191.764Z" fill="#263238"/>
<path d="M54.0249 151.067C54.0455 151.208 54.056 151.351 54.0564 151.493C54.0564 151.798 54.0564 152.203 54.0985 152.714C54.1352 153.766 54.1825 155.307 54.2666 157.2C54.4276 162.129 55.0395 167.033 56.0947 171.849C56.7002 174.493 57.5099 177.085 58.5165 179.603C59.3584 181.655 60.415 183.612 61.6685 185.441C62.5151 186.669 63.4584 187.826 64.4896 188.902C64.8468 189.292 65.1567 189.565 65.3459 189.765C65.4536 189.861 65.5521 189.966 65.64 190.081C65.5222 189.999 65.4114 189.908 65.3091 189.807C65.1042 189.618 64.7837 189.36 64.416 188.976C63.3467 187.923 62.3728 186.777 61.5057 185.552C60.2293 183.725 59.1565 181.763 58.3064 179.703C57.275 177.177 56.4492 174.572 55.8373 171.913C54.7711 167.073 54.1816 162.14 54.0775 157.185C54.0144 155.291 53.9987 153.755 53.9987 152.698C53.9987 152.172 53.9987 151.777 53.9987 151.472C53.9941 151.337 54.0029 151.201 54.0249 151.067Z" fill="#263238"/>
<path d="M79.6454 241.113C79.5719 241.113 79.5089 191.706 79.5089 130.769C79.5089 69.8318 79.5719 20.4193 79.6454 20.4193C79.719 20.4193 79.782 69.816 79.782 130.769C79.782 191.722 79.7242 241.113 79.6454 241.113Z" fill="#263238"/>
<path d="M85.1457 168.904C85.1457 168.904 86.6481 167.426 85.1719 166.405C83.6958 165.385 83.2755 165.353 80.3021 165.879C77.3287 166.405 75.4743 167.321 75.2221 168.809C75.1415 169.221 75.1466 169.645 75.237 170.055C75.3274 170.465 75.5011 170.852 75.7475 171.192C75.7475 171.192 74.2555 171.892 74.2923 174.348L75.1066 176.678C75.1066 176.678 74.0191 178.393 74.4814 179.834C74.7197 180.647 75.2134 181.361 75.8893 181.87C75.8893 181.87 75.033 185.026 75.8893 186.688C76.7456 188.35 79.5036 191.785 79.5036 191.785L79.4511 182.785C79.4511 182.785 85.4766 178.861 85.7288 176.841C85.981 174.821 85.3873 174.28 85.3873 174.28C85.3873 174.28 86.8845 172.865 85.4714 171.602C85.4819 171.581 86.8005 170.045 85.1457 168.904Z" fill="#FFBE9D"/>
<path d="M85.214 174.285C84.7348 174.647 84.231 174.976 83.7063 175.268C82.7659 175.858 81.4526 176.652 80.0289 177.572C79.3197 178.035 78.6525 178.488 78.0747 178.935C77.5708 179.33 77.1189 179.788 76.7298 180.297C76.4669 180.641 76.2432 181.013 76.0627 181.407C76.0086 181.558 75.9455 181.705 75.8735 181.849C75.939 181.237 76.1819 180.657 76.5722 180.181C76.9497 179.643 77.3966 179.156 77.9013 178.735C78.4844 178.267 79.1516 177.809 79.8661 177.346C81.2897 176.42 82.6188 175.647 83.5907 175.105C84.1076 174.786 84.6506 174.512 85.214 174.285Z" fill="#FF9A6C"/>
<path d="M85.4819 171.581C85.3343 171.671 85.1753 171.74 85.0091 171.786L83.6905 172.26C82.5821 172.665 81.0638 173.207 79.3828 173.901C78.6036 174.215 77.8471 174.582 77.1186 175C76.1685 175.633 75.4063 176.511 74.9122 177.541C74.7756 177.841 74.7336 178.019 74.7126 178.014C74.7869 177.365 75.0541 176.753 75.4795 176.257C75.8817 175.673 76.3939 175.173 76.9872 174.785C77.7205 174.347 78.4862 173.968 79.2777 173.648C80.9483 172.949 82.5032 172.433 83.6275 172.07C84.1948 171.892 84.6519 171.76 84.9723 171.676C85.1375 171.623 85.3087 171.591 85.4819 171.581Z" fill="#FF9A6C"/>
<path d="M85.256 168.772C84.8011 168.93 84.3336 169.048 83.8586 169.125C82.9918 169.319 81.7993 169.577 80.4807 169.887C79.1621 170.198 77.9906 170.524 77.1554 170.808C76.3201 171.092 75.8525 171.366 75.8263 171.334C75.8 171.302 75.9261 171.229 76.131 171.087C76.4361 170.906 76.7559 170.751 77.0871 170.624C78.1735 170.216 79.2862 169.882 80.4177 169.624C81.7415 169.309 82.9445 169.098 83.8218 168.935C84.2923 168.828 84.7734 168.773 85.256 168.772Z" fill="#FF9A6C"/>
<path d="M359.611 92.7812C360.544 93.5683 361.744 93.9643 362.961 93.8863C364.178 93.8083 365.318 93.2625 366.142 92.3629C366.967 91.4632 367.413 90.2793 367.386 89.0585C367.359 87.8377 366.862 86.6744 365.999 85.8117C366.999 85.5337 367.886 84.9479 368.534 84.1373C369.183 83.3266 369.56 82.3322 369.613 81.2949C369.666 80.2575 369.392 79.2298 368.829 78.3572C368.266 77.4847 367.444 76.8115 366.477 76.4331C366.953 75.5289 367.188 74.5169 367.157 73.4953C367.127 72.4737 366.833 71.4773 366.304 70.6032C365.775 69.729 365.029 69.0067 364.139 68.5065C363.249 68.0063 362.245 67.7453 361.224 67.7488C360.702 66.3587 359.731 65.1833 358.465 64.4094C357.199 63.6355 355.711 63.3076 354.237 63.4777C353.47 62.8183 352.512 62.4224 351.504 62.3483C350.495 62.2742 349.49 62.5257 348.634 63.0659C347.779 63.6061 347.12 64.4065 346.752 65.3497C346.385 66.2929 346.329 67.3292 346.594 68.3064" fill="#263238"/>
<path d="M350.991 67.0124L351.889 67.5384C356.259 70.096 359.508 74.2076 360.987 79.0548C362.467 83.902 362.07 89.1294 359.874 93.6964C355.635 102.507 350.844 112.185 348.154 116.667C342.58 125.94 332.394 121.927 332.394 121.927L326.615 133.62L314.238 136.103L304.378 119.654L326.153 77.7639C330.996 67.5752 340.946 61.8997 350.991 67.0124Z" fill="#AE7461"/>
<path d="M332.394 121.932C332.394 121.932 326.31 118.834 322.344 111.223C322.344 111.223 321.404 119.728 331.207 124.341L332.394 121.932Z" fill="#6F4439"/>
<path d="M361.476 88.894C361.476 88.894 362.432 81.5984 360.426 78.5844C357.978 74.9339 354.321 77.8217 351.6 75.0076C348.879 72.1935 346.546 68.6956 341.755 69.2742C336.502 69.8949 337.085 72.8247 334.437 76.8433C323.71 93.1178 317.868 96.0739 321.619 87.6474C322.029 86.7216 320.043 84.6281 321.814 80.7515C324.13 75.7282 327.314 69.8528 330.345 67.0755C332.898 64.7559 335.667 63.7354 339.833 63.2725C346.41 62.5361 352.745 66.1497 356.769 69.0585C360.793 71.9673 366.146 81.793 361.476 88.894Z" fill="#263238"/>
<path d="M322.355 87.7421C322.543 87.3924 322.659 87.0081 322.695 86.6124C322.731 86.2166 322.687 85.8177 322.564 85.4396C322.442 85.0616 322.245 84.7122 321.984 84.4127C321.723 84.1133 321.404 83.8698 321.047 83.6972C319.208 82.8398 316.692 82.6978 314.706 86.364C311.176 92.8759 318.43 95.0745 318.541 94.8957C318.651 94.7169 320.899 90.472 322.355 87.7421Z" fill="#AE7461"/>
<path d="M318.457 91.6818C318.457 91.645 318.299 91.6818 318.063 91.6818C317.731 91.6516 317.424 91.4931 317.206 91.24C316.681 90.6141 316.681 89.2096 317.275 88.0156C317.56 87.4505 317.967 86.9563 318.467 86.5691C318.638 86.3986 318.848 86.2722 319.079 86.2007C319.309 86.1293 319.554 86.1149 319.791 86.1588C319.94 86.1944 320.072 86.2814 320.163 86.4045C320.254 86.5277 320.299 86.679 320.29 86.8321C320.29 87.0635 320.169 87.1687 320.196 87.2003C320.222 87.2319 320.395 87.1687 320.49 86.8689C320.537 86.6944 320.524 86.5091 320.453 86.3429C320.405 86.2246 320.334 86.1171 320.243 86.0268C320.153 85.9364 320.046 85.8651 319.928 85.8169C319.632 85.725 319.318 85.7106 319.015 85.7751C318.713 85.8396 318.432 85.9807 318.199 86.1851C317.62 86.5921 317.148 87.1335 316.823 87.7631C316.156 89.0992 316.161 90.6877 316.954 91.4714C317.1 91.617 317.277 91.7276 317.472 91.795C317.667 91.8624 317.874 91.8849 318.078 91.8607C318.357 91.8291 318.472 91.7029 318.457 91.6818Z" fill="#6F4439"/>
<path d="M329.709 75.439C330.203 76.491 330.76 77.5851 331.679 78.2689C332.599 78.9527 334.096 79.0473 334.831 78.1531C335.162 77.7534 335.357 77.1748 335.851 77.0012C336.439 76.796 337.006 77.301 337.505 77.6692C339.249 78.9527 342.612 78.1952 344.14 76.6435C344.183 77.1304 344.408 77.5829 344.771 77.91C345.133 78.237 345.607 78.4141 346.095 78.4056C346.895 78.3874 347.686 78.2289 348.432 77.9375C349.367 77.6219 350.492 77.5114 351.264 78.1216C351.695 78.4687 351.973 79.0052 352.472 79.2419C353.355 79.6575 354.337 78.9158 354.952 78.1584C355.566 77.4009 356.228 76.4857 357.205 76.4489C358.104 76.4121 358.818 77.1537 359.522 77.7218C360.226 78.2899 361.329 78.6897 361.965 78.0479C362.116 77.865 362.229 77.6533 362.297 77.4255C362.365 77.1977 362.386 76.9585 362.359 76.7224C362.291 75.646 361.862 74.6239 361.143 73.8213C360.423 73.0186 359.454 72.4823 358.393 72.2987C358.699 71.0515 358.629 69.7412 358.192 68.5336C357.755 67.326 356.97 66.2752 355.937 65.5141C354.903 64.753 353.668 64.3157 352.386 64.2575C351.105 64.1994 349.835 64.5229 348.737 65.1872C348.418 64.1757 347.861 63.256 347.111 62.5063C346.362 61.7565 345.443 61.1987 344.433 60.8802C343.422 60.5617 342.35 60.4919 341.307 60.6767C340.264 60.8615 339.28 61.2955 338.44 61.9418C337.779 61.2829 336.938 60.8328 336.023 60.6475C335.108 60.4621 334.159 60.5495 333.294 60.8989C332.428 61.2483 331.684 61.8443 331.153 62.6131C330.622 63.3819 330.329 64.2897 330.308 65.224C328.774 65.224 327.13 65.75 326.331 67.0808C325.533 68.4116 326.053 70.4578 327.529 70.8575C326.921 71.2063 326.476 71.7826 326.292 72.4598C326.109 73.137 326.201 73.8596 326.549 74.4685C326.898 75.0774 327.473 75.5229 328.15 75.7069C328.826 75.8908 329.548 75.7982 330.156 75.4495" fill="#263238"/>
<path d="M357.788 74.4553C357.788 74.4553 357.788 74.5027 357.715 74.5711C357.641 74.6394 357.589 74.7604 357.478 74.8919C357.139 75.2728 356.739 75.5961 356.296 75.8492C355.592 76.2519 354.805 76.4859 353.996 76.533C352.922 76.6121 351.851 76.3369 350.949 75.7493L351.138 75.6704C350.99 76.364 350.575 76.9711 349.982 77.3589C349.36 77.7653 348.682 78.0789 347.97 78.2899C347.602 78.436 347.22 78.5419 346.83 78.6055C346.409 78.637 345.986 78.5628 345.601 78.3898C345.192 78.2243 344.83 77.9607 344.547 77.6222C344.264 77.2838 344.068 76.8808 343.977 76.4489L344.256 76.5225C343.777 77.1296 343.177 77.6301 342.494 77.9924C341.811 78.3546 341.06 78.5706 340.29 78.6265C339.421 78.7259 338.544 78.5414 337.789 78.1005C337.1 77.6523 336.493 77.0902 335.992 76.4384H336.208C335.424 77.0175 334.509 77.3918 333.544 77.5272C333.09 77.6098 332.623 77.5904 332.177 77.4703C331.731 77.3502 331.317 77.1325 330.965 76.8329C330.38 76.2953 329.964 75.5982 329.769 74.8273C329.574 74.0563 329.608 73.2451 329.867 72.4934L329.972 72.6459C329.092 72.6078 328.252 72.268 327.592 71.6833C327.095 71.2556 326.707 70.7144 326.463 70.1053C326.308 69.7235 326.221 69.3177 326.205 68.906C326.199 68.7633 326.21 68.6202 326.237 68.48C326.253 69.0225 326.368 69.5575 326.578 70.058C326.836 70.6344 327.222 71.1437 327.708 71.5466C328.344 72.0868 329.144 72.3947 329.977 72.4197H330.135L330.082 72.5723C329.848 73.2769 329.823 74.0343 330.009 74.753C330.196 75.4717 330.586 76.121 331.133 76.6225C331.455 76.8935 331.834 77.0886 332.241 77.1933C332.648 77.298 333.074 77.3096 333.486 77.2274C334.397 77.0897 335.26 76.7282 335.998 76.1754L336.113 76.0859L336.213 76.1964C336.694 76.8141 337.275 77.3474 337.931 77.7744C338.627 78.1858 339.439 78.3593 340.242 78.2688C340.971 78.2149 341.681 78.0092 342.326 77.6651C342.971 77.3209 343.537 76.8458 343.988 76.27L344.203 75.9913L344.266 76.3384C344.348 76.7196 344.521 77.075 344.771 77.3739C345.021 77.6727 345.34 77.9059 345.701 78.0532C346.04 78.2067 346.411 78.2753 346.783 78.2531C347.142 78.1912 347.494 78.0925 347.833 77.9585C348.521 77.7624 349.176 77.4665 349.777 77.0801C350.313 76.7334 350.69 76.189 350.828 75.5652L350.865 75.3811L351.022 75.4863C351.876 76.0569 352.892 76.3339 353.917 76.2753C354.7 76.2438 355.467 76.0371 356.16 75.6704C356.77 75.3648 357.321 74.9534 357.788 74.4553Z" fill="#455A64"/>
<path d="M350.465 100.177C350.365 100.353 350.231 100.507 350.071 100.631C349.911 100.755 349.728 100.846 349.533 100.899C349.338 100.953 349.134 100.967 348.934 100.941C348.733 100.916 348.539 100.851 348.364 100.75C348.188 100.663 348.031 100.541 347.903 100.392C347.774 100.243 347.677 100.07 347.616 99.8825C347.556 99.6954 347.533 99.498 347.549 99.3019C347.566 99.1058 347.621 98.915 347.712 98.7407C347.813 98.5648 347.947 98.4105 348.107 98.2865C348.267 98.1625 348.449 98.0712 348.644 98.018C348.84 97.9647 349.043 97.9505 349.244 97.9761C349.445 98.0018 349.638 98.0668 349.814 98.1674C349.99 98.2549 350.147 98.3767 350.275 98.5257C350.403 98.6746 350.501 98.8478 350.561 99.0349C350.622 99.2221 350.645 99.4195 350.628 99.6155C350.612 99.8116 350.556 100.002 350.465 100.177Z" fill="#263238"/>
<path d="M356.102 97.4836C355.834 97.5573 355.277 96.216 353.848 95.3796C352.42 94.5433 350.959 94.6169 350.907 94.3276C350.907 94.2014 351.232 93.991 351.884 93.9331C352.755 93.873 353.624 94.0863 354.369 94.5433C355.109 94.9833 355.691 95.6485 356.029 96.4421C356.265 97.0523 356.228 97.4521 356.102 97.4836Z" fill="#263238"/>
<path d="M334.091 101.87C334.343 101.991 333.881 103.37 334.401 104.948C334.921 106.526 336.082 107.425 335.945 107.656C335.887 107.772 335.483 107.699 334.952 107.315C334.257 106.781 333.741 106.047 333.476 105.211C333.208 104.389 333.208 103.502 333.476 102.68C333.686 102.086 333.975 101.807 334.091 101.87Z" fill="#263238"/>
<path d="M337.416 93.3966C337.213 93.7438 336.882 93.9977 336.494 94.1038C336.106 94.21 335.692 94.16 335.341 93.9646C335.165 93.8772 335.008 93.7554 334.88 93.6063C334.752 93.4572 334.654 93.2839 334.594 93.0966C334.534 92.9092 334.512 92.7118 334.529 92.5157C334.546 92.3197 334.603 92.1292 334.695 91.9553C334.897 91.6086 335.227 91.3546 335.613 91.2475C336 91.1404 336.413 91.1887 336.765 91.382C336.941 91.4695 337.099 91.5915 337.228 91.7408C337.356 91.8902 337.454 92.0639 337.515 92.2517C337.575 92.4394 337.598 92.6375 337.581 92.8341C337.564 93.0308 337.508 93.222 337.416 93.3966Z" fill="#263238"/>
<path d="M341.96 89.4516C341.692 89.5252 341.13 88.1786 339.706 87.3476C338.283 86.5165 336.817 86.5849 336.765 86.2956C336.733 86.1746 337.085 85.9642 337.742 85.9063C338.613 85.8462 339.482 86.0595 340.227 86.5165C340.967 86.9565 341.549 87.6217 341.887 88.4153C342.144 89.0202 342.086 89.42 341.96 89.4516Z" fill="#263238"/>
<path d="M340.516 103.454C340.558 103.37 341.529 103.748 343.074 104.422C343.457 104.606 343.846 104.737 344.056 104.527C344.312 104.169 344.453 103.741 344.461 103.301C344.643 102.218 344.837 101.08 345.044 99.8874C345.911 95.0482 346.767 91.1611 346.961 91.1979C347.156 91.2347 346.615 95.185 345.743 100.024C345.522 101.213 345.312 102.344 345.107 103.427C345.073 104.004 344.836 104.55 344.44 104.969C344.31 105.064 344.161 105.129 344.002 105.159C343.844 105.189 343.681 105.183 343.526 105.142C343.292 105.075 343.068 104.98 342.858 104.858C341.367 104.069 340.468 103.538 340.516 103.454Z" fill="#263238"/>
<path d="M345.968 84.4072C345.606 84.7228 344.266 83.7287 342.449 82.987C340.631 82.2454 339.002 81.935 338.976 81.4564C338.976 81.2302 339.418 80.9935 340.184 80.9304C341.185 80.8739 342.184 81.0469 343.108 81.4361C344.031 81.8254 344.853 82.4206 345.511 83.1764C345.995 83.7708 346.137 84.2547 345.968 84.4072Z" fill="#263238"/>
<path d="M358.035 92.0132C357.578 92.1868 356.722 91.2347 355.461 90.4878C354.2 89.7409 352.997 89.3464 352.945 88.8625C352.945 88.6363 353.292 88.4048 353.938 88.368C354.793 88.3556 355.634 88.5952 356.354 89.0571C357.087 89.4936 357.674 90.1379 358.041 90.9086C358.293 91.524 358.245 91.9238 358.035 92.0132Z" fill="#263238"/>
<path d="M339.885 139.106L330.219 127.723C320.763 127.387 311.622 120.422 309.873 108.924L300.238 104.474L295.247 105.784L295.463 208.354C295.463 208.354 323.2 179.761 323.2 179.271C323.2 178.782 339.885 139.106 339.885 139.106Z" fill="#6D6CD9"/>
<path d="M304.998 176.531L315.562 183.679L330.13 155.17L339.885 139.195C339.885 139.195 347.003 146.076 344.088 159.331C341.172 172.586 335.257 186.578 335.257 186.578L332.073 195.341C332.073 195.341 329.72 203.867 326.951 206.508C324.183 209.148 314.958 211.126 310.477 208.885C305.996 206.644 296.44 189.328 296.44 189.328C302.744 185.568 306.421 180.118 304.998 176.531Z" fill="#6D6CD9"/>
<path d="M334.737 151.872C334.691 151.941 334.642 152.008 334.59 152.072L334.122 152.629L332.341 154.733L325.916 162.208V162.182L320.08 174.537C318.504 177.793 317.038 180.902 315.683 183.737L315.63 183.569C317.664 184.655 319.519 186.048 321.131 187.698C322.399 188.993 323.461 190.474 324.283 192.09C324.815 193.142 325.239 194.245 325.549 195.383C325.659 195.777 325.712 196.093 325.759 196.298C325.787 196.401 325.807 196.507 325.817 196.614C325.774 196.516 325.743 196.413 325.722 196.308C325.659 196.103 325.591 195.782 325.47 195.409C325.129 194.289 324.686 193.203 324.146 192.164C323.316 190.575 322.254 189.119 320.994 187.845C319.378 186.224 317.525 184.859 315.499 183.795L315.394 183.737L315.447 183.627L319.823 174.416C321.976 169.903 324.025 165.674 325.717 162.087L332.236 154.644L334.07 152.577L334.558 152.051C334.611 151.985 334.671 151.925 334.737 151.872Z" fill="#263238"/>
<path d="M304.714 202.631C304.648 202.558 304.59 202.479 304.541 202.394C304.42 202.21 304.262 201.973 304.068 201.668C303.648 201.016 303.059 200.09 302.324 198.938C300.837 196.571 298.757 193.263 296.33 189.392L296.256 189.276L296.377 189.213C298.827 187.97 301.005 186.25 302.781 184.153C303.699 183.042 304.411 181.775 304.882 180.413C305.099 179.768 305.233 179.098 305.281 178.419C305.31 178.094 305.31 177.766 305.281 177.441C305.261 177.285 305.225 177.132 305.176 176.983C305.144 176.854 305.077 176.735 304.982 176.641L305.119 176.426L314.396 182.648L317.023 184.452L317.721 184.942C317.805 184.996 317.884 185.058 317.958 185.126C317.866 185.087 317.78 185.037 317.7 184.978L316.975 184.526L314.286 182.78L304.95 176.636L305.087 176.42C305.239 176.543 305.348 176.71 305.397 176.899C305.452 177.07 305.49 177.247 305.513 177.425C305.556 177.774 305.566 178.126 305.544 178.477C305.494 179.178 305.358 179.871 305.14 180.539C304.674 181.93 303.962 183.225 303.038 184.363C301.239 186.491 299.029 188.232 296.54 189.481L296.587 189.302L302.497 198.896L304.178 201.668L304.619 202.41C304.654 202.482 304.686 202.556 304.714 202.631Z" fill="#263238"/>
<path d="M302.529 174.243L301.972 174.548L296.44 178.987C296.44 178.987 295.358 182.669 295.389 182.906C295.421 183.143 297.927 188.308 297.927 188.308C305.523 183.832 305.281 178.03 305.281 178.03C305.281 178.03 302.812 174.632 302.529 174.243Z" fill="#AE7461"/>
<path d="M295.247 241.96C295.169 241.96 295.111 193.105 295.111 132.857C295.111 72.6091 295.169 23.7384 295.247 23.7384C295.326 23.7384 295.389 72.588 295.389 132.862C295.389 193.137 295.321 241.96 295.247 241.96Z" fill="#263238"/>
<path d="M295.058 94.6327C295.058 94.6327 301.494 96.8682 302.135 98.5724C302.49 99.6828 302.394 100.889 301.867 101.928C301.867 101.928 302.697 103.743 302.361 105.237C302.024 106.731 301.494 106.815 301.494 106.815C301.918 107.071 302.244 107.464 302.416 107.929C302.589 108.395 302.599 108.905 302.445 109.376C302.258 110.344 301.733 111.213 300.963 111.828C300.963 111.828 301.709 114.011 300.753 115.662C299.797 117.314 299.582 119.286 297.769 119.497C295.957 119.707 287.609 117.046 286.968 115.236C286.327 113.427 289.043 112.464 289.043 112.464C289.043 112.464 283.617 110.918 283.722 109.056C283.827 107.194 285.823 106.552 285.823 106.552C285.823 106.552 284.173 105.752 285.503 104.153C286.832 102.554 289.39 103.512 290.509 103.627C290.509 103.627 290.294 101.281 292.637 101.439L295.085 101.387L295.058 94.6327Z" fill="#AE7461"/>
<path d="M301.588 102.354C301.544 102.525 301.479 102.689 301.394 102.844C301.252 103.149 301.037 103.59 300.748 104.127C300.606 104.39 300.443 104.685 300.222 104.984C300.124 105.161 299.992 105.317 299.834 105.442C299.637 105.521 299.43 105.571 299.219 105.589C298.346 105.677 297.469 105.719 296.592 105.716C295.668 105.716 294.79 105.716 293.966 105.647C293.249 105.525 292.567 105.247 291.969 104.832C291.559 104.581 291.166 104.304 290.793 104.001C290.53 103.785 290.399 103.648 290.414 103.638C290.572 103.714 290.72 103.807 290.856 103.917C291.139 104.101 291.544 104.369 292.064 104.669C292.65 105.034 293.301 105.282 293.981 105.4C294.775 105.442 295.652 105.447 296.571 105.442C297.491 105.437 298.368 105.416 299.151 105.337C299.33 105.326 299.507 105.291 299.676 105.232C299.806 105.129 299.915 105.002 299.996 104.858C300.196 104.569 300.364 104.29 300.522 104.027C301.194 102.991 301.551 102.333 301.588 102.354Z" fill="#6F4439"/>
<path d="M298.751 98.7303C298.074 99.1512 297.474 99.6849 296.976 100.308C296.817 100.526 296.68 100.759 296.566 101.003L296.529 101.081H296.44C295.924 101.078 295.414 101.191 294.948 101.413C294.948 101.413 295.043 101.255 295.295 101.108C295.647 100.905 296.05 100.807 296.456 100.824L296.33 100.903C296.442 100.638 296.585 100.387 296.755 100.156C297.098 99.6719 297.545 99.2711 298.063 98.9827C298.463 98.7566 298.741 98.6987 298.751 98.7303Z" fill="#6F4439"/>
<path d="M296.965 96.4895C296.965 96.5263 296.766 96.6473 296.44 96.8945C296.053 97.2157 295.741 97.6179 295.526 98.0728C295.319 98.5301 295.214 99.0276 295.221 99.5298C295.238 99.7451 295.238 99.9614 295.221 100.177C295.19 100.177 295.069 99.9558 295.011 99.5456C294.947 99.003 295.034 98.4534 295.263 97.9575C295.492 97.4617 295.854 97.0391 296.309 96.7367C296.687 96.5158 296.965 96.4579 296.965 96.4895Z" fill="#6F4439"/>
<path d="M301.562 106.91C301.467 107.125 301.349 107.33 301.21 107.52C300.865 108.064 300.462 108.568 300.007 109.024C299.324 109.732 298.403 110.161 297.422 110.229C296.303 110.271 295.174 109.85 293.997 109.519C291.638 108.808 289.532 108.061 288.014 107.509C287.257 107.236 286.643 106.983 286.222 106.841C286 106.766 285.786 106.671 285.581 106.557C285.813 106.592 286.04 106.652 286.259 106.736L288.077 107.33C289.611 107.856 291.722 108.545 294.076 109.256C295.258 109.592 296.377 110.008 297.412 109.976C298.338 109.92 299.213 109.532 299.876 108.882C300.334 108.447 300.751 107.97 301.121 107.457C301.252 107.262 301.4 107.079 301.562 106.91Z" fill="#6F4439"/>
<path d="M301.242 111.975C301.167 112.128 301.074 112.271 300.963 112.401C300.686 112.777 300.379 113.129 300.044 113.453C299.549 113.941 298.964 114.327 298.321 114.589C297.518 114.884 296.655 114.975 295.81 114.852C294.975 114.735 294.16 114.51 293.383 114.184C292.668 113.9 292.038 113.616 291.507 113.39C290.456 112.927 289.763 112.738 289.773 112.696C289.952 112.695 290.13 112.726 290.299 112.785C290.742 112.903 291.179 113.046 291.607 113.211C292.694 113.595 294.139 114.347 295.867 114.579C296.671 114.7 297.491 114.623 298.258 114.352C298.879 114.107 299.45 113.751 299.944 113.3C300.769 112.522 301.2 111.938 301.242 111.975Z" fill="#6F4439"/>
<path d="M281.069 161.771C281.069 161.771 279.797 159.846 282.298 158.868C284.799 157.889 289.695 156.29 291.229 156.148C292.763 156.006 300.8 158 300.8 158C300.8 158 303.627 158.831 303.59 160.867L303.064 162.786C303.722 163.541 304.084 164.509 304.084 165.511C304 166.439 303.674 167.328 303.138 168.089L302.812 174.632C302.812 174.632 302.523 179.366 300.711 181.275C298.899 183.185 295.925 182.69 295.925 182.69L295.4 182.885C295.4 182.885 291.917 180.218 292.862 176.846L288.922 174.164C288.922 174.164 280.549 173.001 280.113 170.75L280.26 169.588C280.26 169.588 277.145 169.12 277.145 166.958V165.869C276.856 165.587 276.662 165.223 276.591 164.826C276.519 164.429 276.573 164.019 276.745 163.654C277.36 162.381 277.975 161.982 279.372 161.95C279.943 161.977 280.515 161.916 281.069 161.771Z" fill="#AE7461"/>
<path d="M295.594 171.15C294.835 171.175 294.077 171.094 293.341 170.908C292.647 170.787 291.833 170.619 290.924 170.44C290.472 170.35 289.994 170.256 289.506 170.187C289.017 170.119 288.492 170.119 287.961 170.077C285.828 169.945 283.9 169.803 282.503 169.693L280.853 169.546C280.649 169.539 280.446 169.507 280.249 169.451C280.452 169.427 280.656 169.427 280.859 169.451L282.519 169.514C283.916 169.577 285.844 169.688 287.972 169.819C288.497 169.861 289.022 169.877 289.548 169.94C290.073 170.003 290.525 170.114 290.982 170.208L293.383 170.734C294.065 170.887 294.617 170.992 295.001 171.06C295.2 171.075 295.399 171.105 295.594 171.15Z" fill="#6F4439"/>
<path d="M296.671 166.584C296.416 166.628 296.156 166.637 295.899 166.611C295.405 166.611 294.691 166.547 293.798 166.474C292.905 166.4 291.864 166.305 290.703 166.19L288.875 166.006C288.25 165.948 287.588 165.943 286.916 165.921C284.221 165.885 281.778 165.921 280.008 165.921H277.906C277.65 165.928 277.394 165.916 277.139 165.885C277.391 165.832 277.649 165.807 277.906 165.811C278.4 165.811 279.115 165.758 280.008 165.732C281.778 165.68 284.21 165.622 286.926 165.658C287.604 165.658 288.261 165.685 288.907 165.748L290.735 165.948L293.819 166.295L295.92 166.511C296.172 166.521 296.422 166.546 296.671 166.584Z" fill="#6F4439"/>
<path d="M298.221 161.603C298.008 161.69 297.779 161.731 297.548 161.724C296.929 161.741 296.31 161.716 295.694 161.65C294.917 161.582 293.992 161.461 292.973 161.345C291.872 161.201 290.763 161.134 289.653 161.145C289.079 161.174 288.507 161.235 287.94 161.329C287.378 161.408 286.842 161.461 286.327 161.508C285.277 161.598 284.368 161.656 283.59 161.703C282.813 161.75 282.182 161.771 281.746 161.782C281.521 161.807 281.294 161.807 281.069 161.782C281.288 161.724 281.514 161.692 281.741 161.687L283.58 161.519L286.301 161.266C286.826 161.214 287.352 161.156 287.877 161.077C288.45 160.975 289.029 160.91 289.611 160.882C290.737 160.871 291.863 160.945 292.978 161.103L295.689 161.466C296.461 161.561 297.086 161.619 297.522 161.629C297.958 161.64 298.21 161.582 298.221 161.603Z" fill="#6F4439"/>
</svg>
