<svg width="314" height="313" viewBox="0 0 314 313" fill="none" xmlns="http://www.w3.org/2000/svg">
<path d="M274.312 199.65C274.312 199.65 306.295 163.705 296.129 101.162C285.962 38.618 233.735 15.5749 199.099 27.6129C164.462 39.6509 156.649 60.6031 128.361 72.5847C100.072 84.5664 46.3169 76.3407 19.4365 116.586C-7.44394 156.832 26.8734 223.52 70.5619 265.336C114.25 307.153 225.735 280.974 274.312 199.65Z" fill="#F0F0F0"/>
<path d="M24.4445 207.118L32.3634 282.977" stroke="#263238" stroke-linecap="round" stroke-linejoin="round"/>
<path d="M31.2303 272.247L27.706 268.535" stroke="#263238" stroke-linecap="round" stroke-linejoin="round"/>
<path d="M28.8703 269.75C28.8619 269.131 28.7213 268.52 28.4579 267.96C28.1945 267.4 27.8143 266.902 27.3429 266.501C26.3601 265.624 21.183 263.446 20.6948 265.249C20.1627 267.252 25.4586 271.146 28.8703 269.75Z" fill="#8D8CF5" stroke="#263238" stroke-linecap="round" stroke-linejoin="round"/>
<path d="M28.8703 269.75L23.9437 266.682" stroke="#263238" stroke-linecap="round" stroke-linejoin="round"/>
<path d="M32.1067 280.611L28.6637 277.744" stroke="#263238" stroke-linecap="round" stroke-linejoin="round"/>
<path d="M29.8281 278.958C29.8217 278.339 29.6826 277.729 29.4202 277.169C29.1578 276.608 28.7781 276.11 28.3069 275.709C27.3241 274.827 22.1471 272.654 21.6588 274.457C21.1204 276.454 26.4164 280.348 29.8281 278.958Z" fill="#8D8CF5" stroke="#263238" stroke-linecap="round" stroke-linejoin="round"/>
<path d="M29.8281 278.958L24.9015 275.884" stroke="#263238" stroke-linecap="round" stroke-linejoin="round"/>
<path d="M28.839 249.198L25.3585 246.068" stroke="#263238" stroke-linecap="round" stroke-linejoin="round"/>
<path d="M26.5228 247.27C26.5164 246.651 26.3773 246.041 26.1149 245.48C25.8525 244.92 25.4729 244.422 25.0016 244.021C24.0126 243.145 18.8418 240.966 18.3473 242.769C17.8152 244.766 23.1111 248.672 26.5228 247.27Z" fill="#8D8CF5" stroke="#263238" stroke-linecap="round" stroke-linejoin="round"/>
<path d="M26.5228 247.282L21.5962 244.215" stroke="#263238" stroke-linecap="round" stroke-linejoin="round"/>
<path d="M29.8093 258.989L26.3225 255.277" stroke="#263238" stroke-linecap="round" stroke-linejoin="round"/>
<path d="M27.4869 256.491C27.4785 255.872 27.3379 255.262 27.0744 254.701C26.811 254.141 26.4308 253.643 25.9594 253.242C24.9766 252.359 19.7996 250.187 19.3113 251.99C18.7792 253.987 24.0752 257.912 27.4869 256.491Z" fill="#8D8CF5" stroke="#263238" stroke-linecap="round" stroke-linejoin="round"/>
<path d="M27.4869 256.491L22.5602 253.417" stroke="#263238" stroke-linecap="round" stroke-linejoin="round"/>
<path d="M27.2865 234.669L23.7997 231.113" stroke="#263238" stroke-linecap="round" stroke-linejoin="round"/>
<path d="M24.9641 232.327C24.9557 231.708 24.8151 231.098 24.5517 230.538C24.2882 229.977 23.9081 229.48 23.4366 229.078C22.4538 228.196 17.2831 226.024 16.7885 227.826C16.2564 229.823 21.5524 233.717 24.9641 232.327Z" fill="#8D8CF5" stroke="#263238" stroke-linecap="round" stroke-linejoin="round"/>
<path d="M24.9641 232.327L20.0375 229.254" stroke="#263238" stroke-linecap="round" stroke-linejoin="round"/>
<path d="M25.6089 218.674L22.2285 216.089" stroke="#263238" stroke-linecap="round" stroke-linejoin="round"/>
<path d="M23.3928 217.303C23.3864 216.685 23.2473 216.074 22.9849 215.514C22.7225 214.953 22.3429 214.456 21.8716 214.054C20.8888 213.178 15.7118 211 15.2235 212.802C14.6852 214.806 19.9811 218.699 23.3928 217.303Z" fill="#8D8CF5" stroke="#263238" stroke-linecap="round" stroke-linejoin="round"/>
<path d="M23.3928 217.303L18.4662 214.236" stroke="#263238" stroke-linecap="round" stroke-linejoin="round"/>
<path d="M30.8923 267.133L33.8032 262.388" stroke="#263238" stroke-linecap="round" stroke-linejoin="round"/>
<path d="M32.9143 263.815C32.7958 263.207 32.8077 262.581 32.949 261.978C33.0904 261.374 33.358 260.808 33.7343 260.316C34.5168 259.258 39.1305 256.059 39.9943 257.743C40.9146 259.571 36.5388 264.472 32.9143 263.815Z" fill="#8D8CF5" stroke="#263238" stroke-linecap="round" stroke-linejoin="round"/>
<path d="M32.9143 263.815L36.3823 260.56" stroke="#263238" stroke-linecap="round" stroke-linejoin="round"/>
<path d="M28.3633 242.907L31.2742 238.155" stroke="#263238" stroke-linecap="round" stroke-linejoin="round"/>
<path d="M30.3852 239.583C30.2653 238.976 30.2764 238.35 30.4178 237.748C30.5592 237.145 30.8277 236.58 31.2053 236.09C31.9878 235.025 35.5873 232.365 36.4512 234.049C37.3839 235.877 34.0098 240.24 30.3852 239.583Z" fill="#8D8CF5" stroke="#263238" stroke-linecap="round" stroke-linejoin="round"/>
<path d="M30.3852 239.583L34.8236 235.345" stroke="#263238" stroke-linecap="round" stroke-linejoin="round"/>
<path d="M27.249 232.258L30.1661 227.507" stroke="#263238" stroke-linecap="round" stroke-linejoin="round"/>
<path d="M29.296 228.934C29.174 228.327 29.1841 227.701 29.3256 227.099C29.4671 226.496 29.7367 225.931 30.1161 225.441C30.8923 224.377 35.5059 221.185 36.3761 222.862C37.2775 224.69 32.9018 229.592 29.296 228.934Z" fill="#8D8CF5" stroke="#263238" stroke-linecap="round" stroke-linejoin="round"/>
<path d="M29.2772 228.934L33.7093 224.696" stroke="#263238" stroke-linecap="round" stroke-linejoin="round"/>
<path d="M25.6214 216.646L28.5323 211.901" stroke="#263238" stroke-linecap="round" stroke-linejoin="round"/>
<path d="M27.6434 213.328C27.5234 212.721 27.5345 212.096 27.6759 211.493C27.8174 210.891 28.0858 210.325 28.4634 209.835C29.2459 208.771 33.8595 205.572 34.7234 207.256C35.6499 209.084 31.2679 213.986 27.6434 213.328Z" fill="#8D8CF5" stroke="#263238" stroke-linecap="round" stroke-linejoin="round"/>
<path d="M27.6434 213.328L32.0817 209.084" stroke="#263238" stroke-linecap="round" stroke-linejoin="round"/>
<path d="M24.3756 206.668C24.2557 206.061 24.2668 205.435 24.4082 204.832C24.5496 204.23 24.8181 203.665 25.1957 203.175C25.9782 202.11 30.5918 198.918 31.4557 200.595C32.3822 202.423 28.0002 207.325 24.3756 206.668Z" fill="#8D8CF5" stroke="#263238" stroke-linecap="round" stroke-linejoin="round"/>
<path d="M24.3756 206.668L28.814 202.43" stroke="#263238" stroke-linecap="round" stroke-linejoin="round"/>
<path d="M24.6323 206.849C24.0165 206.906 23.3958 206.83 22.8117 206.627C22.2276 206.424 21.6937 206.098 21.2456 205.672C20.2691 204.783 17.571 199.857 19.3363 199.181C21.2519 198.442 25.6715 203.319 24.6323 206.849Z" fill="#8D8CF5" stroke="#263238" stroke-linecap="round" stroke-linejoin="round"/>
<path d="M24.6323 206.849L20.8826 201.998" stroke="#263238" stroke-linecap="round" stroke-linejoin="round"/>
<path d="M37.1022 185.302V282.789" stroke="#263238" stroke-linecap="round" stroke-linejoin="round"/>
<path d="M46.7301 218.267L39.9943 283.165" stroke="#263238" stroke-linecap="round" stroke-linejoin="round"/>
<path d="M40.107 282.689L38.1602 280.467" stroke="#263238" stroke-linecap="round" stroke-linejoin="round"/>
<path d="M38.1602 280.448C38.2801 279.841 38.269 279.215 38.1276 278.613C37.9862 278.01 37.7177 277.445 37.3401 276.955C36.5576 275.891 31.944 272.698 31.0801 274.382C30.1536 276.229 34.5356 281.13 38.1602 280.448Z" fill="#8D8CF5" stroke="#263238" stroke-linecap="round" stroke-linejoin="round"/>
<path d="M38.1602 280.467L33.9722 276.448" stroke="#263238" stroke-linecap="round" stroke-linejoin="round"/>
<path d="M42.4796 259.577L39.5937 257.167" stroke="#263238" stroke-linecap="round" stroke-linejoin="round"/>
<path d="M40.4951 258C40.6151 257.392 40.6033 256.766 40.4608 256.163C40.3183 255.561 40.0482 254.996 39.6688 254.507C38.8863 253.442 34.2727 250.25 33.4088 251.927C32.4886 253.762 36.8706 258.657 40.4951 258Z" fill="#8D8CF5" stroke="#263238" stroke-linecap="round" stroke-linejoin="round"/>
<path d="M40.4951 258L36.3072 253.981" stroke="#263238" stroke-linecap="round" stroke-linejoin="round"/>
<path d="M41.5656 270.526L38.6484 265.781" stroke="#263238" stroke-linecap="round" stroke-linejoin="round"/>
<path d="M39.5374 267.208C39.6573 266.601 39.6462 265.975 39.5048 265.373C39.3634 264.771 39.0949 264.205 38.7173 263.715C37.9348 262.651 33.3212 259.458 32.4573 261.136C31.5308 262.97 35.9128 267.865 39.5374 267.208Z" fill="#8D8CF5" stroke="#263238" stroke-linecap="round" stroke-linejoin="round"/>
<path d="M39.5374 267.208L35.3494 263.189" stroke="#263238" stroke-linecap="round" stroke-linejoin="round"/>
<path d="M43.9381 244.822L41.1587 241.617" stroke="#263238" stroke-linecap="round" stroke-linejoin="round"/>
<path d="M42.0476 243.038C42.1675 242.431 42.1558 241.805 42.0133 241.202C41.8707 240.6 41.6007 240.035 41.2213 239.545C40.4388 238.487 35.8252 235.288 34.9613 236.972C34.0411 238.8 38.4231 243.702 42.0476 243.038Z" fill="#8D8CF5" stroke="#263238" stroke-linecap="round" stroke-linejoin="round"/>
<path d="M42.0476 243.038L37.8597 239.026" stroke="#263238" stroke-linecap="round" stroke-linejoin="round"/>
<path d="M45.3967 230.762L42.7174 226.593" stroke="#263238" stroke-linecap="round" stroke-linejoin="round"/>
<path d="M43.6064 228.02C43.7263 227.413 43.7146 226.787 43.572 226.184C43.4295 225.582 43.1594 225.017 42.78 224.527C41.9975 223.463 37.3839 220.271 36.52 221.948C35.5998 223.782 39.9818 228.678 43.6064 228.02Z" fill="#8D8CF5" stroke="#263238" stroke-linecap="round" stroke-linejoin="round"/>
<path d="M43.6064 228.021L39.4184 224.002" stroke="#263238" stroke-linecap="round" stroke-linejoin="round"/>
<path d="M40.6767 278.326L44.5078 274.276" stroke="#263238" stroke-linecap="round" stroke-linejoin="round"/>
<path d="M43.3434 275.49C43.3498 274.871 43.4889 274.261 43.7513 273.7C44.0138 273.14 44.3934 272.642 44.8646 272.241C45.8474 271.365 51.0245 269.18 51.5127 270.989C52.0511 272.986 46.7551 276.88 43.3434 275.49Z" fill="#8D8CF5" stroke="#263238" stroke-linecap="round" stroke-linejoin="round"/>
<path d="M43.3434 275.49L48.558 272.254" stroke="#263238" stroke-linecap="round" stroke-linejoin="round"/>
<path d="M43.1932 254.093L47.0181 250.049" stroke="#263238" stroke-linecap="round" stroke-linejoin="round"/>
<path d="M45.86 251.258C45.8663 250.639 46.0054 250.028 46.2679 249.468C46.5303 248.908 46.9099 248.41 47.3811 248.009C48.364 247.132 53.5347 244.954 54.0293 246.757C54.5614 248.754 49.2717 252.654 45.86 251.258Z" fill="#8D8CF5" stroke="#263238" stroke-linecap="round" stroke-linejoin="round"/>
<path d="M45.86 251.258L51.0745 248.027" stroke="#263238" stroke-linecap="round" stroke-linejoin="round"/>
<path d="M44.3012 243.445L48.1261 239.401" stroke="#263238" stroke-linecap="round" stroke-linejoin="round"/>
<path d="M46.9617 240.609C46.9717 239.991 47.1124 239.382 47.3746 238.822C47.6368 238.262 48.0145 237.764 48.4829 237.36C49.4657 236.484 54.6427 234.306 55.131 236.108C55.6694 238.105 50.3734 242.005 46.9617 240.609Z" fill="#8D8CF5" stroke="#263238" stroke-linecap="round" stroke-linejoin="round"/>
<path d="M46.9617 240.609L52.1763 237.379" stroke="#263238" stroke-linecap="round" stroke-linejoin="round"/>
<path d="M45.8725 227.038L49.7474 223.789" stroke="#263238" stroke-linecap="round" stroke-linejoin="round"/>
<path d="M48.5831 225.003C48.5894 224.384 48.7285 223.774 48.991 223.214C49.2534 222.653 49.633 222.155 50.1042 221.754C51.0871 220.872 56.2641 218.693 56.7524 220.502C57.2907 222.499 51.9948 226.393 48.5831 225.003Z" fill="#8D8CF5" stroke="#263238" stroke-linecap="round" stroke-linejoin="round"/>
<path d="M48.5831 225.003L53.7976 221.767" stroke="#263238" stroke-linecap="round" stroke-linejoin="round"/>
<path d="M46.7551 217.81C46.7619 217.192 46.9012 216.582 47.1636 216.021C47.426 215.461 47.8054 214.963 48.2763 214.562C49.2591 213.685 54.4299 211.507 54.9244 213.31C55.4565 215.306 50.1668 219.206 46.7551 217.81Z" fill="#8D8CF5" stroke="#263238" stroke-linecap="round" stroke-linejoin="round"/>
<path d="M46.7551 217.81L51.9697 214.58" stroke="#263238" stroke-linecap="round" stroke-linejoin="round"/>
<path d="M46.968 218.042C46.3509 217.968 45.7571 217.762 45.2267 217.438C44.6964 217.114 44.2419 216.679 43.8943 216.164C43.1243 215.094 41.4967 209.723 43.3622 209.422C45.3905 209.128 48.702 214.799 46.968 218.042Z" fill="#8D8CF5" stroke="#263238" stroke-linecap="round" stroke-linejoin="round"/>
<path d="M46.968 218.042L44.295 212.521" stroke="#263238" stroke-linecap="round" stroke-linejoin="round"/>
<path d="M36.9645 272.097L33.7969 267.865" stroke="#263238" stroke-linecap="round" stroke-linejoin="round"/>
<path d="M34.8298 269.18C34.8886 268.568 34.8163 267.951 34.6177 267.369C34.4191 266.787 34.0987 266.254 33.678 265.806C32.7953 264.829 27.875 262.125 27.1926 263.89C26.4289 265.806 31.2929 270.225 34.8298 269.18Z" fill="#8D8CF5" stroke="#263238" stroke-linecap="round" stroke-linejoin="round"/>
<path d="M34.8298 269.192L30.2475 265.631" stroke="#263238" stroke-linecap="round" stroke-linejoin="round"/>
<path d="M37.0772 251.683L33.7969 248.628" stroke="#263238" stroke-linecap="round" stroke-linejoin="round"/>
<path d="M34.8298 249.956C34.8906 249.341 34.8192 248.72 34.6206 248.135C34.4219 247.549 34.1006 247.014 33.678 246.563C32.7953 245.586 27.875 242.888 27.1926 244.647C26.4289 246.563 31.2929 250.982 34.8298 249.956Z" fill="#8D8CF5" stroke="#263238" stroke-linecap="round" stroke-linejoin="round"/>
<path d="M34.8298 249.956L30.2475 246.387" stroke="#263238" stroke-linecap="round" stroke-linejoin="round"/>
<path d="M37.1836 230.456L33.7969 226.036" stroke="#263238" stroke-linecap="round" stroke-linejoin="round"/>
<path d="M34.8298 227.363C34.8905 226.749 34.8191 226.129 34.6204 225.545C34.4217 224.961 34.1004 224.426 33.678 223.977C32.7953 223 27.875 220.296 27.1926 222.061C26.4289 223.977 31.2929 228.396 34.8298 227.363Z" fill="#8D8CF5" stroke="#263238" stroke-linecap="round" stroke-linejoin="round"/>
<path d="M34.8298 227.363L30.2475 223.801" stroke="#263238" stroke-linecap="round" stroke-linejoin="round"/>
<path d="M36.9645 213.854L33.7969 211" stroke="#263238" stroke-linecap="round" stroke-linejoin="round"/>
<path d="M34.8298 212.327C34.8906 211.712 34.8192 211.091 34.6206 210.506C34.4219 209.921 34.1006 209.385 33.678 208.934C32.7953 207.963 27.875 205.259 27.1926 207.018C26.4289 208.934 31.2929 213.36 34.8298 212.327Z" fill="#8D8CF5" stroke="#263238" stroke-linecap="round" stroke-linejoin="round"/>
<path d="M34.8298 212.327L30.2475 208.758" stroke="#263238" stroke-linecap="round" stroke-linejoin="round"/>
<path d="M37.146 198.811L33.8595 196.401" stroke="#263238" stroke-linecap="round" stroke-linejoin="round"/>
<path d="M34.8298 197.221C34.8905 196.607 34.8191 195.987 34.6204 195.403C34.4217 194.819 34.1004 194.284 33.678 193.835C32.7953 192.858 27.875 190.154 27.1926 191.919C26.4289 193.835 31.2929 198.254 34.8298 197.221Z" fill="#8D8CF5" stroke="#263238" stroke-linecap="round" stroke-linejoin="round"/>
<path d="M34.8298 197.221L30.2475 193.659" stroke="#263238" stroke-linecap="round" stroke-linejoin="round"/>
<path d="M37.7658 277.212L40.5014 273.744" stroke="#263238" stroke-linecap="round" stroke-linejoin="round"/>
<path d="M39.4685 275.071C39.4148 274.455 39.4919 273.835 39.6947 273.251C39.8976 272.668 40.2215 272.134 40.6454 271.684C41.5343 270.707 46.4547 268.009 47.1307 269.768C47.8694 271.684 43.0054 276.097 39.4685 275.071Z" fill="#8D8CF5" stroke="#263238" stroke-linecap="round" stroke-linejoin="round"/>
<path d="M39.4685 275.071L44.32 271.315" stroke="#263238" stroke-linecap="round" stroke-linejoin="round"/>
<path d="M37.1085 247.564L40.5014 243.138" stroke="#263238" stroke-linecap="round" stroke-linejoin="round"/>
<path d="M39.4685 244.466C39.412 243.85 39.4877 243.229 39.6907 242.645C39.8937 242.061 40.2192 241.527 40.6454 241.079C41.5343 240.102 46.4547 237.398 47.1307 239.163C47.8694 241.079 43.0054 245.498 39.4685 244.466Z" fill="#8D8CF5" stroke="#263238" stroke-linecap="round" stroke-linejoin="round"/>
<path d="M39.4685 244.465L44.32 240.709" stroke="#263238" stroke-linecap="round" stroke-linejoin="round"/>
<path d="M37.1085 232.459L40.5014 228.039" stroke="#263238" stroke-linecap="round" stroke-linejoin="round"/>
<path d="M39.4685 229.366C39.4157 228.752 39.4932 228.133 39.696 227.551C39.8988 226.968 40.2223 226.435 40.6454 225.986C41.5343 225.009 46.4547 222.311 47.1307 224.07C47.8694 225.986 43.0054 230.368 39.4685 229.366Z" fill="#8D8CF5" stroke="#263238" stroke-linecap="round" stroke-linejoin="round"/>
<path d="M39.4685 229.366L44.32 225.61" stroke="#263238" stroke-linecap="round" stroke-linejoin="round"/>
<path d="M37.1085 212.496L40.5014 208.076" stroke="#263238" stroke-linecap="round" stroke-linejoin="round"/>
<path d="M39.4685 209.403C39.4139 208.787 39.4905 208.166 39.6934 207.581C39.8962 206.996 40.2207 206.461 40.6454 206.01C41.5343 205.034 46.4547 202.336 47.1307 204.095C47.8694 206.01 43.0054 210.436 39.4685 209.403Z" fill="#8D8CF5" stroke="#263238" stroke-linecap="round" stroke-linejoin="round"/>
<path d="M39.4685 209.403L44.32 205.647" stroke="#263238" stroke-linecap="round" stroke-linejoin="round"/>
<path d="M37.2587 195.268L40.5765 192.677" stroke="#263238" stroke-linecap="round" stroke-linejoin="round"/>
<path d="M39.4685 193.709C39.4121 193.091 39.4878 192.467 39.6907 191.88C39.8936 191.293 40.219 190.756 40.6454 190.304C41.5343 189.327 46.4547 186.629 47.1307 188.388C47.8694 190.304 43.0054 194.736 39.4685 193.709Z" fill="#8D8CF5" stroke="#263238" stroke-linecap="round" stroke-linejoin="round"/>
<path d="M39.4685 193.709L44.32 189.953" stroke="#263238" stroke-linecap="round" stroke-linejoin="round"/>
<path d="M36.9082 186.748C36.8503 186.134 36.9229 185.513 37.1214 184.929C37.3199 184.344 37.6398 183.808 38.06 183.355C38.9489 182.379 43.8693 179.681 44.5454 181.44C45.3091 183.355 40.4451 187.8 36.9082 186.748Z" fill="#8D8CF5" stroke="#263238" stroke-linecap="round" stroke-linejoin="round"/>
<path d="M36.9082 186.748L41.7597 182.992" stroke="#263238" stroke-linecap="round" stroke-linejoin="round"/>
<path d="M37.146 186.955C36.5269 186.947 35.9168 186.806 35.3564 186.542C34.7961 186.279 34.2985 185.899 33.8971 185.427C33.0207 184.445 30.8485 179.268 32.6451 178.779C34.6546 178.247 38.542 183.543 37.146 186.955Z" fill="#8D8CF5" stroke="#263238" stroke-linecap="round" stroke-linejoin="round"/>
<path d="M37.146 186.955L33.9159 181.734" stroke="#263238" stroke-linecap="round" stroke-linejoin="round"/>
<path opacity="0.2" d="M58.9121 98.6451L94.2811 104.373L152.073 96.4041L195.161 107.847L238.624 98.1506L278.92 175.224L213.979 190.548L151.66 184.125L78.8251 190.993L32.9143 172.682L58.9121 98.6451Z" fill="#AAAAAA"/>
<path d="M48.9086 67.0822L87.9209 73.3985L151.679 64.6095L199.205 77.2297L247.15 66.5313L291.609 151.561L219.969 168.463L151.222 161.377L70.8749 168.951L20.2315 148.756L48.9086 67.0822Z" fill="white" stroke="#263238" stroke-linecap="round" stroke-linejoin="round"/>
<path d="M56.3267 72.5722L86.8004 78.0622L151.328 69.8303L200.2 81.3612L242.487 71.7521L278.738 148.456L217.572 163.668L151.666 157.345L71.4258 162.91L33.0958 145.914L56.3267 72.5722Z" fill="#8D8CF5" stroke="#263238" stroke-linecap="round" stroke-linejoin="round"/>
<g opacity="0.64">
<path d="M229.898 106.495L206.272 112.68H199.086C199.086 112.68 208.332 121.582 226.129 123.291C243.926 125 248.039 121.582 248.039 121.582L229.898 106.495Z" fill="white"/>
<path d="M127.196 75.3455L111.446 78.7697L109.393 84.2472L119.321 82.1939L116.923 94.5136L128.567 93.1489L130.62 79.1077L127.196 75.3455Z" fill="white"/>
<path d="M117.268 96.5668L116.241 102.733L123.09 101.362V96.2288L117.268 96.5668Z" fill="white"/>
<path d="M113.161 96.5669L111.79 103.415L98.4377 105.131L98.782 100.335L113.161 96.5669Z" fill="white"/>
<path d="M192.056 127.041C185.533 127.041 180.243 130.408 180.243 134.553C180.243 138.697 185.533 142.065 192.056 142.065C198.579 142.065 203.869 138.69 203.869 134.553C203.869 130.415 198.591 127.041 192.056 127.041ZM192.056 137.989C189.089 137.989 186.685 136.462 186.685 134.571C186.685 132.681 189.089 131.147 192.056 131.147C195.023 131.147 197.44 132.712 197.44 134.59C197.44 136.468 195.036 137.989 192.056 137.989Z" fill="white"/>
<path d="M98.4377 154.084L107.684 131.485L87.1447 132.518L84.0585 140.387H93.6425L86.4561 156.819L98.4377 154.084Z" fill="white"/>
<path d="M138.151 104.786L151.842 101.706L169.645 107.184L155.948 109.575L152.186 106.495L138.151 109.237V104.786Z" fill="white"/>
<path d="M138.833 91.778L139.178 100.68L145.338 99.3088L144.311 91.4337L138.833 91.778Z" fill="white"/>
<path d="M53.5911 96.5669L48.1136 112.317L70.3679 118.139L73.7921 105.813L64.208 96.9112L53.5911 96.5669Z" fill="white"/>
</g>
<path d="M274.062 138.553L265.204 129.789C266.732 129.595 268.209 129.382 269.624 129.163L268.516 126.809C266.744 127.072 264.885 127.322 262.944 127.548L236.54 101.412C243.557 100.367 250.224 99.4652 255.32 98.9393L254.187 96.548C248.678 97.1364 241.666 98.1067 234.442 99.196L234.518 98.739L233.672 98.6075L224.364 89.3928L245.266 77.5802L244.196 75.3141L222.536 87.5586L213.271 78.394L210.379 79.02L229.491 97.9252L168.706 88.4163C168.412 87.7464 168.118 87.0766 167.849 86.388C166.111 81.9757 164.762 77.4198 163.817 72.7725L161.125 72.1465C162.114 77.3005 163.581 82.3512 165.507 87.2331L165.808 87.9655L151.566 85.7307L136.868 87.014L136.342 71.7396L133.838 72.0589L135.209 113.844C134.358 113.844 133.506 113.844 132.705 113.807C109.574 113.137 84.5906 106.389 80.8909 104.373C78.3869 102.99 72.7529 96.4729 69.7544 92.7732C75.8829 92.454 81.8111 91.6276 85.3167 89.806C90.1244 87.302 101.499 80.6977 111.271 74.9385L104.961 75.746C96.616 80.6351 88.1337 85.5304 84.1712 87.5837C77.0786 91.2646 58.0857 90.5008 50.7928 90.0501L50.0103 92.5166C52.7272 92.6981 57.4723 92.9485 62.7307 92.9485C63.9827 92.9485 65.3286 92.9485 66.6494 92.8984C67.5884 94.0878 75.8203 104.454 79.6953 106.57C83.5702 108.686 108.723 115.616 132.636 116.305C133.517 116.33 134.412 116.342 135.322 116.342L135.509 122.058L116.373 122.615L116.085 122.514L116.047 122.621L78.0364 123.729L42.9428 114.84L42.1853 117.231L63.8011 122.696L43.7691 150.634L46.1104 151.667L66.4303 123.36L77.786 126.233L115.177 125.144L104.291 155.874L91.5016 161.508L98.8759 161.001L151.66 137.764L189.327 117.588C193.614 120.446 198.24 122.759 203.099 124.474C207.507 126.019 212.008 127.284 216.576 128.261L211.055 139.31L188.3 160.882L191.605 161.195L212.939 140.975L213.096 140.825L219.118 128.781C225.458 129.983 231.877 130.719 238.324 130.984L233.253 159.78L235.914 159.123L240.884 131.053C242.192 131.084 243.488 131.109 244.771 131.109C250.537 131.103 256.298 130.788 262.03 130.164L277.198 145.188L274.062 138.553ZM107.433 154.503L117.837 125.081L135.591 124.574L136.16 141.87L107.433 154.503ZM227.851 100.241C213.327 102.533 199.462 105.012 196.444 105.612L193.94 106.12C191.261 106.677 187.086 107.547 182.015 108.498C177.018 103.45 172.925 97.5801 169.914 91.1456L227.851 100.241ZM136.968 89.518L151.46 88.266L166.947 90.6949C169.972 97.4483 174.099 103.651 179.16 109.049C170.647 110.595 160.13 112.261 149.882 113.168L149.776 113.012L149.488 113.206C145.482 113.55 141.525 113.782 137.744 113.832L136.968 89.518ZM137.844 116.311C140.273 116.273 142.777 116.161 145.313 115.998L138.001 120.931L137.844 116.311ZM150.627 135.479L138.646 140.75L138.095 123.892L150.364 115.61C161.332 114.621 172.556 112.793 181.333 111.165C183.134 112.885 185.043 114.489 187.048 115.967L150.627 135.479ZM203.95 122.07C196.709 119.574 190.03 115.678 184.294 110.602C188.582 109.782 192.106 109.049 194.472 108.555L196.933 108.048C201.402 107.152 217.841 104.292 233.447 101.882L259.739 127.879C243.933 129.4 223.65 129.031 203.95 122.07Z" fill="white" stroke="#263238" stroke-linecap="round" stroke-linejoin="round"/>
<path d="M75.163 141.357L71.1504 164.832" stroke="#263238" stroke-linecap="round" stroke-linejoin="round"/>
<path d="M86.2557 76.4159L75.9768 136.587" stroke="#263238" stroke-linecap="round" stroke-linejoin="round"/>
<path d="M151.159 67.126L151.504 91.4336" stroke="#263238" stroke-linecap="round" stroke-linejoin="round"/>
<path d="M201.815 95.9658L215.863 155.11" stroke="#263238" stroke-linecap="round" stroke-linejoin="round"/>
<path d="M198.059 80.1343L201.146 93.1426" stroke="#263238" stroke-linecap="round" stroke-linejoin="round"/>
<path d="M151.842 159.561L151.504 145.182" stroke="#263238" stroke-linecap="round" stroke-linejoin="round"/>
<path d="M229.871 45.8872C234.355 44.8223 237.127 40.3242 236.062 35.8403C234.997 31.3564 230.499 28.5848 226.015 29.6497C221.531 30.7146 218.759 35.2128 219.824 39.6966C220.889 44.1805 225.387 46.9521 229.871 45.8872Z" fill="#263238"/>
<path d="M231.976 37.0091C231.977 36.1335 231.719 35.2772 231.233 34.5486C230.748 33.8199 230.057 33.2517 229.248 32.9157C228.44 32.5798 227.55 32.4912 226.691 32.6613C225.832 32.8314 225.042 33.2524 224.423 33.8711C223.803 34.4898 223.381 35.2784 223.21 36.1371C223.039 36.9958 223.126 37.886 223.461 38.6951C223.795 39.5042 224.363 40.1958 225.091 40.6823C225.819 41.1689 226.675 41.4287 227.55 41.4287C228.723 41.4287 229.848 40.9632 230.678 40.1346C231.507 39.3059 231.974 38.1818 231.976 37.0091Z" stroke="white" stroke-width="2" stroke-linecap="round" stroke-linejoin="round"/>
<path d="M230.58 40.4958L233.372 43.0562" stroke="white" stroke-width="2" stroke-linecap="round" stroke-linejoin="round"/>
<path d="M207.124 46.95H74.0362C72.8451 46.95 71.6657 46.7151 70.5654 46.2587C69.4652 45.8023 68.4658 45.1334 67.6244 44.2903C66.7831 43.4472 66.1162 42.4464 65.6621 41.3452C65.208 40.2441 64.9755 39.0641 64.978 37.873C64.9755 36.6819 65.208 35.502 65.6621 34.4008C66.1162 33.2997 66.7831 32.2989 67.6244 31.4558C68.4658 30.6126 69.4652 29.9437 70.5654 29.4873C71.6657 29.0309 72.8451 28.796 74.0362 28.796H207.124C208.315 28.7952 209.496 29.0295 210.597 29.4855C211.697 29.9416 212.698 30.6103 213.54 31.4535C214.382 32.2967 215.049 33.2978 215.504 34.3994C215.958 35.5009 216.191 36.6814 216.188 37.873C216.191 39.0647 215.958 40.2451 215.504 41.3467C215.049 42.4482 214.382 43.4493 213.54 44.2925C212.698 45.1357 211.697 45.8045 210.597 46.2605C209.496 46.7165 208.315 46.9508 207.124 46.95Z" fill="white" stroke="#263238" stroke-linecap="round" stroke-linejoin="round"/>
<path d="M276.885 225.467H239.951C238.111 225.462 236.34 226.162 235 227.422C233.66 228.683 232.853 230.409 232.746 232.246L229.885 282.952H281.267L284.078 233.072C284.133 232.094 283.988 231.114 283.652 230.194C283.315 229.273 282.794 228.431 282.121 227.719C281.448 227.007 280.636 226.44 279.736 226.053C278.835 225.665 277.865 225.466 276.885 225.467Z" fill="#263238" stroke="#263238" stroke-linecap="round" stroke-linejoin="round"/>
<path d="M205.64 207.143C205.64 207.143 186.86 211.119 185.245 213.241C183.63 215.363 151.867 267.809 151.867 267.809C151.867 267.809 153.188 280.792 155.31 280.523C157.432 280.254 156.9 282.113 164.074 277.349C171.248 272.585 185.27 260.923 185.27 260.923L192.682 282.908H254.656C254.656 282.908 255.182 213.767 253.329 209.003C251.476 204.239 236.114 200.79 230.793 200.79C225.472 200.79 205.64 207.143 205.64 207.143Z" fill="white" stroke="#263238" stroke-linecap="round" stroke-linejoin="round"/>
<path d="M204.138 230.994L208.376 235.232L226.724 201.34C218.993 202.88 205.64 207.15 205.64 207.15C205.64 207.15 196.206 209.147 190.14 211.062L182.109 218.199C175.048 229.604 158.321 257.136 153.313 265.418L155.316 280.529C157.419 280.273 156.906 282.113 164.043 277.356C171.179 272.598 185.239 260.929 185.239 260.929L188.751 271.352C187.899 266.97 184.531 249.273 185.765 246.181C187.186 242.644 204.138 230.994 204.138 230.994Z" fill="#263238" stroke="#263238" stroke-linecap="round" stroke-linejoin="round"/>
<path d="M201.665 215.444L185.42 239.113V225.692L201.665 215.444Z" fill="white" stroke="#263238" stroke-linecap="round" stroke-linejoin="round"/>
<path d="M208.658 242.957C208.658 242.957 206.717 258.25 206.961 260.923C207.205 263.596 211.568 279.853 211.568 279.853" fill="white"/>
<path d="M208.658 242.957C208.658 242.957 206.717 258.25 206.961 260.923C207.205 263.596 211.568 279.853 211.568 279.853" stroke="#263238" stroke-linecap="round" stroke-linejoin="round"/>
<path d="M206.454 205.622C206.454 205.622 201.922 214.299 198.479 221.98C195.036 229.661 195.029 235.226 195.029 235.226C195.029 235.226 206.686 227.545 208.013 226.75C209.34 225.955 211.988 224.628 211.988 224.628L226.824 235.226C226.824 235.226 228.145 223.038 228.702 210.061C229.259 197.084 224.727 192.044 221.021 191.781C217.315 191.518 206.454 205.622 206.454 205.622Z" fill="white" stroke="#263238" stroke-linecap="round" stroke-linejoin="round"/>
<path d="M170.947 179.343C170.947 179.343 164.136 195.4 166.077 199.456C168.018 203.513 172.731 196.865 172.731 196.865C172.731 196.865 174.841 211.3 178.572 210.161C182.303 209.021 187.962 204.483 187.962 204.483C187.962 204.483 193.965 214.054 198.022 214.054C202.078 214.054 206.454 205.622 206.454 205.622C206.454 205.622 212.62 181.127 212.946 178.535C213.271 175.944 212.132 159.067 202.723 155.824C193.314 152.581 179.536 161.339 175.649 166.516C171.761 171.693 170.947 179.343 170.947 179.343Z" fill="#263238" stroke="#263238" stroke-linecap="round" stroke-linejoin="round"/>
<path d="M180.475 192.839C180.475 192.839 178.353 200.257 178.353 202.643C178.353 205.028 177.827 213.504 177.558 215.094C177.289 216.684 150.277 249.799 146.302 256.41C142.327 263.02 140.211 269.13 144.18 274.426C148.148 279.722 152.13 281.581 155.31 280.517C158.49 279.453 158.221 280.254 163.254 274.689C168.287 269.124 183.386 223.826 183.386 223.826C183.386 223.826 188.156 221.448 190.272 219.858C192.388 218.267 196.1 209.522 196.1 209.522L180.475 192.839Z" fill="#FFBE9D" stroke="#263238" stroke-linecap="round" stroke-linejoin="round"/>
<path d="M144.18 274.432C148.155 279.728 152.13 281.587 155.31 280.523C158.49 279.459 158.221 280.26 163.254 274.695C164.337 273.499 165.889 270.463 167.636 266.432C161.545 267.934 154.377 268.936 152.906 268.072C148.668 265.568 146.283 256.416 146.283 256.416C142.327 263.039 140.211 269.136 144.18 274.432Z" fill="white" stroke="#263238" stroke-linecap="round" stroke-linejoin="round"/>
<path d="M177.927 175.437C177.927 175.437 180.431 181.02 180.431 184.376C180.431 187.731 176.8 192.476 179.035 196.107C181.27 199.738 188.25 213.979 188.25 213.979C188.25 213.979 191.881 215.939 195.518 213.979C199.155 212.02 206.686 208.395 206.686 208.395C206.686 208.395 205.571 227.945 206.967 232.697C208.363 237.448 209.202 239.677 209.202 239.677C209.202 239.677 212.833 223.758 216.714 216.515C220.595 209.272 222.58 196.401 222.58 196.401C222.58 196.401 222.298 191.393 222.58 186.348C222.861 181.302 215.036 162.046 202.466 157.858C189.896 153.671 182.916 157.859 179.561 162.867C176.206 167.875 177.927 175.437 177.927 175.437Z" fill="#FFBE9D" stroke="#263238" stroke-linecap="round" stroke-linejoin="round"/>
<path d="M185.752 192.182C185.752 192.182 189.94 197.491 195.53 193.021" stroke="#263238" stroke-linecap="round" stroke-linejoin="round"/>
<path d="M189.94 199.456C189.94 199.456 198.598 201.691 203.086 193.309" stroke="#263238" stroke-linecap="round" stroke-linejoin="round"/>
<path d="M197.872 184.044C197.872 185.158 197.289 186.066 196.576 186.066C195.862 186.066 195.274 185.158 195.274 184.044C195.274 182.93 195.856 182.016 196.576 182.016C197.296 182.016 197.872 182.93 197.872 184.044Z" fill="#263238"/>
<path d="M185.546 184.044C185.546 185.158 184.963 186.066 184.25 186.066C183.536 186.066 182.948 185.158 182.948 184.044C182.948 182.93 183.53 182.016 184.25 182.016C184.97 182.016 185.546 182.93 185.546 184.044Z" fill="#263238"/>
<path d="M195.599 174.153C195.599 174.153 199.493 173.665 202.091 175.775" stroke="#263238" stroke-width="2" stroke-linecap="round" stroke-linejoin="round"/>
<path d="M186.516 174.153C184.608 174.155 182.765 174.846 181.326 176.1" stroke="#263238" stroke-width="2" stroke-linecap="round" stroke-linejoin="round"/>
<path d="M206.698 208.395L214.579 204.483L206.467 216.327L206.698 208.395Z" fill="#263238" stroke="#263238" stroke-linecap="round" stroke-linejoin="round"/>
<path d="M212.564 137.445C212.564 137.445 202.228 130.465 196.645 131.579C191.061 132.693 177.37 142.221 174.86 143.035C172.35 143.849 158.934 150.296 158.934 155.041C158.934 159.787 165.082 161.746 165.082 161.746C165.082 161.746 149.995 174.892 153.908 177.396C157.82 179.9 167.598 174.604 167.598 174.604C167.598 174.604 161.451 184.382 165.363 185.215C169.276 186.047 175.154 179.625 175.154 179.625C175.154 179.625 176.55 181.859 180.744 177.671C184.938 173.483 190.241 165.101 190.241 165.101C190.241 165.101 189.683 170.685 192.745 169.846C195.806 169.008 199.731 163.424 199.731 163.424C199.731 163.424 202.235 189.121 206.154 187.168C210.072 185.215 210.066 182.698 210.066 182.698C210.066 182.698 210.341 193.033 212.858 192.195C215.375 191.356 216.77 188.564 216.77 188.564C216.77 188.564 219.562 199.174 222.912 198.899C223.84 198.841 224.724 198.483 225.43 197.877C226.136 197.272 226.626 196.452 226.824 195.544C226.824 195.544 227.663 207.275 234.924 204.765C242.186 202.254 243.307 194.429 243.307 194.429C243.307 194.429 248.609 200.577 251.682 196.107C254.756 191.637 252.778 186.047 252.778 186.047C252.778 186.047 257.786 185.49 257.248 181.302C256.709 177.114 246.912 164.544 246.912 164.544C246.912 164.544 253.053 165.377 248.865 158.397C244.678 151.417 237.134 145.251 231.826 141.914C228.717 139.93 225.328 138.423 221.772 137.445C221.772 137.445 230.148 134.377 223.725 133.538C217.303 132.7 212.564 137.445 212.564 137.445Z" fill="#263238" stroke="#263238" stroke-linecap="round" stroke-linejoin="round"/>
<path d="M234.868 232.403L236.12 254.563C236.12 254.563 231.112 253.768 231.112 254.563C231.112 255.358 232.12 265.424 232.12 265.424C232.12 265.424 241.654 270.989 246.687 272.31C251.72 273.631 250.925 278.138 253.31 277.318C255.695 276.498 260.991 275.728 262.074 270.958C263.157 266.188 260.196 257.186 259.952 256.122C259.708 255.057 258.074 214.004 254.656 206.849C251.238 199.694 245.116 199.694 241.147 201.284C237.178 202.874 232.934 210.048 232.934 210.048" fill="white"/>
<path d="M234.868 232.403L236.12 254.563C236.12 254.563 231.112 253.768 231.112 254.563C231.112 255.358 232.12 265.424 232.12 265.424C232.12 265.424 241.654 270.989 246.687 272.31C251.72 273.631 250.925 278.138 253.31 277.318C255.695 276.498 260.991 275.728 262.074 270.958C263.157 266.188 260.196 257.186 259.952 256.122C259.708 255.057 258.074 214.004 254.656 206.849C251.238 199.694 245.116 199.694 241.147 201.284C237.178 202.874 232.934 210.048 232.934 210.048" stroke="#263238" stroke-linecap="round" stroke-linejoin="round"/>
<path d="M258.024 261.324C259.276 263.045 260.215 264.366 260.215 264.366" stroke="#263238" stroke-linecap="round" stroke-linejoin="round"/>
<path d="M238.486 253.53C238.486 253.53 248.822 252.998 250.938 253.53C252.027 253.799 254.437 256.66 256.528 259.358" stroke="#263238" stroke-linecap="round" stroke-linejoin="round"/>
<path d="M252.002 249.774C255.176 250.832 255.971 252.153 255.971 252.153" stroke="#263238" stroke-linecap="round" stroke-linejoin="round"/>
<path d="M239.551 251.12C241.866 250.547 244.211 250.097 246.574 249.774" stroke="#263238" stroke-linecap="round" stroke-linejoin="round"/>
<path d="M257.586 272.51C257.874 267.803 252.509 258.983 246.174 258.006C239.288 256.948 227.625 262.244 212 264.103C196.375 265.962 189.214 266.488 183.918 266.488C178.622 266.488 166.434 263.039 164.318 263.571C162.202 264.103 152.393 274.432 150.277 276.817C148.161 279.202 148.618 279.947 149.087 280.179C149.557 280.41 150.74 279.822 150.74 279.822C150.74 279.822 151.673 281.105 152.837 281.105C153.605 281.066 154.341 280.781 154.934 280.292C155.7 280.759 156.613 280.924 157.495 280.755C158.778 280.404 166.259 275.396 166.816 275.165C167.373 274.933 171.01 273.881 171.01 273.881C168.994 275.456 166.85 276.859 164.6 278.075C161.92 279.327 159.83 280.523 161.226 281.205C162.621 281.888 164.982 281.093 166.816 280.279C168.65 279.465 171.01 278.401 171.824 278.295C172.637 278.188 178.91 275.052 178.91 275.052C178.91 275.052 184.15 276.216 186.597 276.454C189.045 276.692 194.404 274.47 194.404 274.47C194.404 274.47 213.741 277.85 223.525 278.432C233.309 279.015 248.916 281.224 254.155 278.545C254.149 278.57 257.291 277.318 257.586 272.51Z" fill="#FFBE9D" stroke="#263238" stroke-linecap="round" stroke-linejoin="round"/>
<path d="M154.909 280.298C154.909 280.298 162.991 272.222 163.873 271.534C164.756 270.845 169.877 269.412 169.877 269.412" stroke="#263238" stroke-linecap="round" stroke-linejoin="round"/>
<path d="M150.74 279.822C150.74 279.822 159.304 270.808 160.368 269.568C161.432 268.329 165.313 266.745 165.313 266.745" stroke="#263238" stroke-linecap="round" stroke-linejoin="round"/>
<path d="M65.0406 90.5634C64.2764 90.5634 63.5196 90.714 62.8136 91.0066C62.1077 91.2993 61.4663 91.7282 60.9262 92.2689C60.3861 92.8096 59.9578 93.4514 59.6659 94.1577C59.3741 94.864 59.2242 95.6209 59.2251 96.3852C59.2251 99.5965 65.0406 105.587 65.0406 105.587C65.0406 105.587 70.8624 99.5965 70.8624 96.3852C70.8624 94.8411 70.249 93.3603 69.1572 92.2685C68.0654 91.1767 66.5846 90.5634 65.0406 90.5634ZM65.0406 98.7014C64.6503 98.7014 64.2688 98.5855 63.9444 98.3686C63.62 98.1516 63.3673 97.8433 63.2182 97.4826C63.0691 97.1219 63.0305 96.7251 63.1071 96.3424C63.1837 95.9598 63.3721 95.6084 63.6485 95.3329C63.9249 95.0574 64.2768 94.8701 64.6597 94.7947C65.0427 94.7193 65.4394 94.7592 65.7996 94.9095C66.1598 95.0597 66.4673 95.3134 66.6832 95.6385C66.8991 95.9636 67.0137 96.3454 67.0125 96.7357C67.0092 97.2565 66.8 97.7549 66.4305 98.122C66.0611 98.4891 65.5614 98.6951 65.0406 98.6951V98.7014Z" fill="#263238" stroke="#263238" stroke-linecap="round" stroke-linejoin="round"/>
<path d="M125.45 63.6454C124.685 63.6454 123.929 63.796 123.223 64.0887C122.517 64.3813 121.875 64.8102 121.335 65.3509C120.795 65.8916 120.367 66.5335 120.075 67.2398C119.783 67.946 119.633 68.703 119.634 69.4672C119.634 72.6786 125.45 78.6694 125.45 78.6694C125.45 78.6694 131.271 72.6786 131.271 69.4672C131.271 67.9232 130.658 66.4424 129.566 65.3506C128.474 64.2588 126.994 63.6454 125.45 63.6454ZM125.45 71.7834C125.059 71.7834 124.678 71.6676 124.353 71.4506C124.029 71.2337 123.776 70.9253 123.627 70.5646C123.478 70.204 123.439 69.8072 123.516 69.4245C123.593 69.0418 123.781 68.6905 124.057 68.4149C124.334 68.1394 124.686 67.9521 125.069 67.8767C125.452 67.8013 125.848 67.8413 126.209 67.9915C126.569 68.1417 126.876 68.3954 127.092 68.7205C127.308 69.0456 127.423 69.4275 127.422 69.8177C127.418 70.3386 127.209 70.8369 126.84 71.204C126.47 71.5711 125.97 71.7771 125.45 71.7771V71.7834Z" fill="#263238" stroke="#263238" stroke-linecap="round" stroke-linejoin="round"/>
<path d="M115.596 104.642C114.832 104.641 114.075 104.791 113.369 105.083C112.663 105.375 112.021 105.803 111.48 106.343C110.939 106.883 110.51 107.525 110.218 108.231C109.925 108.937 109.775 109.693 109.775 110.458C109.775 113.675 115.596 119.66 115.596 119.66C115.596 119.66 121.412 113.675 121.412 110.458C121.412 108.915 120.799 107.436 119.709 106.345C118.618 105.255 117.139 104.642 115.596 104.642ZM115.596 112.78C115.208 112.78 114.829 112.665 114.506 112.45C114.183 112.234 113.931 111.928 113.782 111.57C113.632 111.211 113.593 110.817 113.668 110.436C113.742 110.055 113.928 109.704 114.202 109.429C114.476 109.154 114.825 108.965 115.205 108.888C115.586 108.811 115.981 108.848 116.34 108.995C116.699 109.142 117.007 109.392 117.225 109.713C117.442 110.035 117.56 110.414 117.562 110.802C117.562 111.323 117.355 111.823 116.986 112.192C116.618 112.56 116.118 112.768 115.596 112.768V112.78Z" fill="#263238" stroke="#263238" stroke-linecap="round" stroke-linejoin="round"/>
<path d="M232.345 100.886C231.581 100.885 230.824 101.035 230.118 101.327C229.412 101.619 228.77 102.047 228.229 102.587C227.688 103.127 227.259 103.769 226.967 104.475C226.674 105.181 226.524 105.937 226.524 106.702C226.524 109.919 232.345 115.904 232.345 115.904C232.345 115.904 238.161 109.919 238.161 106.702C238.161 105.159 237.548 103.68 236.458 102.589C235.367 101.499 233.888 100.886 232.345 100.886ZM232.345 109.024C231.957 109.024 231.578 108.909 231.255 108.694C230.932 108.478 230.68 108.172 230.531 107.814C230.381 107.455 230.342 107.061 230.417 106.68C230.491 106.299 230.677 105.948 230.951 105.673C231.225 105.398 231.574 105.209 231.954 105.132C232.335 105.055 232.73 105.092 233.089 105.239C233.448 105.386 233.756 105.636 233.974 105.957C234.191 106.279 234.309 106.658 234.311 107.046C234.311 107.567 234.104 108.067 233.735 108.436C233.367 108.805 232.867 109.012 232.345 109.012V109.024Z" fill="#263238" stroke="#263238" stroke-linecap="round" stroke-linejoin="round"/>
<path d="M165.676 119.353C164.912 119.352 164.155 119.502 163.449 119.794C162.743 120.086 162.101 120.514 161.56 121.054C161.019 121.594 160.59 122.236 160.298 122.942C160.005 123.648 159.855 124.404 159.855 125.169C159.855 128.386 165.676 134.371 165.676 134.371C165.676 134.371 171.492 128.386 171.492 125.169C171.492 124.405 171.341 123.649 171.049 122.943C170.757 122.238 170.329 121.597 169.789 121.056C169.249 120.516 168.607 120.088 167.902 119.796C167.196 119.504 166.44 119.353 165.676 119.353ZM165.676 127.491C165.288 127.491 164.909 127.376 164.586 127.161C164.263 126.945 164.011 126.639 163.862 126.281C163.712 125.922 163.673 125.528 163.748 125.147C163.822 124.766 164.008 124.415 164.282 124.14C164.556 123.865 164.905 123.676 165.285 123.599C165.666 123.522 166.061 123.559 166.42 123.706C166.779 123.853 167.087 124.103 167.305 124.424C167.522 124.746 167.64 125.125 167.642 125.513C167.642 126.034 167.435 126.534 167.066 126.903C166.698 127.272 166.198 127.479 165.676 127.479V127.491Z" fill="#263238" stroke="#263238" stroke-linecap="round" stroke-linejoin="round"/>
<path d="M190.09 68.9601C189.326 68.9593 188.569 69.1091 187.863 69.401C187.157 69.6929 186.515 70.1211 185.974 70.6612C185.433 71.2013 185.004 71.8427 184.712 72.5487C184.419 73.2547 184.269 74.0114 184.269 74.7756C184.269 77.9933 190.09 83.9778 190.09 83.9778C190.09 83.9778 195.906 77.9933 195.906 74.7756C195.906 73.2332 195.293 71.754 194.203 70.6634C193.112 69.5728 191.633 68.9601 190.09 68.9601ZM190.09 77.0981C189.702 77.0981 189.323 76.9831 189 76.7677C188.677 76.5522 188.425 76.246 188.276 75.8875C188.126 75.5291 188.087 75.1345 188.162 74.7535C188.236 74.3726 188.422 74.0223 188.696 73.7469C188.97 73.4716 189.319 73.2834 189.699 73.2061C190.08 73.1289 190.475 73.166 190.834 73.3129C191.193 73.4597 191.501 73.7097 191.719 74.0313C191.936 74.3529 192.054 74.7317 192.056 75.1199C192.056 75.6412 191.849 76.1412 191.48 76.5098C191.112 76.8785 190.612 77.0856 190.09 77.0856V77.0981Z" fill="#263238" stroke="#263238" stroke-linecap="round" stroke-linejoin="round"/>
<path d="M170.885 279.916H52.2201V283.309H170.885V279.916Z" fill="#263238" stroke="#263238" stroke-linecap="round" stroke-linejoin="round"/>
<path d="M170.885 279.916H129.231V283.309H170.885V279.916Z" fill="#8D8CF5" stroke="#263238" stroke-linecap="round" stroke-linejoin="round"/>
<path d="M132.586 279.916H55.5379L51.0871 228.672C51.0256 228.108 51.0848 227.539 51.2607 227C51.4366 226.462 51.7251 225.967 52.1072 225.549C52.4892 225.131 52.9559 224.799 53.4762 224.575C53.9965 224.352 54.5585 224.242 55.1248 224.252H123.359C124.561 224.273 125.714 224.735 126.599 225.55C127.484 226.364 128.039 227.475 128.16 228.672L132.586 279.916Z" fill="white" stroke="#263238" stroke-linecap="round" stroke-linejoin="round"/>
<path d="M131.109 279.916H54.0606L49.6097 228.672C49.5483 228.108 49.6075 227.539 49.7833 227C49.9592 226.462 50.2478 225.967 50.6298 225.549C51.0118 225.131 51.4785 224.799 51.9988 224.575C52.5191 224.352 53.0811 224.242 53.6474 224.252H121.881C123.084 224.273 124.237 224.735 125.122 225.55C126.007 226.364 126.562 227.475 126.683 228.672L131.109 279.916Z" fill="#8D8CF5" stroke="#263238" stroke-linecap="round" stroke-linejoin="round"/>
<path d="M127.678 240.396L54.0606 279.916H131.109L127.678 240.396Z" fill="#263238" stroke="#263238" stroke-linecap="round" stroke-linejoin="round"/>
<path d="M90.8829 253.97C92.65 252.124 92.4509 249.066 90.4383 247.139C88.4257 245.211 85.3617 245.145 83.5946 246.99C81.8275 248.836 82.0265 251.894 84.0391 253.821C86.0517 255.748 89.1158 255.815 90.8829 253.97Z" fill="#263238" stroke="#263238" stroke-linecap="round" stroke-linejoin="round"/>
<path d="M294.877 260.479C293.337 258.388 288.379 257.205 286.814 257.975V261.956C294.157 260.936 295.321 268.185 292.93 271.897C292.273 272.882 291.349 273.66 290.265 274.138C289.182 274.616 287.984 274.774 286.814 274.595V278.025C288.066 278.464 290.363 278.651 293.211 276.341C297.662 272.717 298.357 265.186 294.877 260.479Z" fill="white" stroke="#263238" stroke-linecap="round" stroke-linejoin="round"/>
<path d="M287.365 252.178H265.674V283.002H287.365V252.178Z" fill="white" stroke="#263238" stroke-linecap="round" stroke-linejoin="round"/>
<path d="M270.056 234.124C269.874 233.176 269.961 232.196 270.306 231.294" stroke="white" stroke-linecap="round" stroke-linejoin="round"/>
<path d="M270.306 248.835C270.306 248.835 274.688 246.018 273.123 241.949C272.309 239.839 271.245 237.893 270.581 236.077" stroke="white" stroke-linecap="round" stroke-linejoin="round"/>
<path d="M275.314 248.835C275.314 248.835 279.696 246.018 278.131 241.949C277.655 240.697 277.098 239.545 276.585 238.425" stroke="white" stroke-linecap="round" stroke-linejoin="round"/>
<path d="M282.2 239.758C280.773 236.628 279.302 233.874 280.322 231.326" stroke="white" stroke-linecap="round" stroke-linejoin="round"/>
<path d="M280.322 248.835C280.322 248.835 284.022 246.456 283.408 242.913" stroke="white" stroke-linecap="round" stroke-linejoin="round"/>
<path d="M9.89 282.99H305.362" stroke="#263238" stroke-linecap="round" stroke-linejoin="round"/>
</svg>
