<svg width="20" height="20" viewBox="0 0 20 20" fill="none" xmlns="http://www.w3.org/2000/svg">
<g id="password.6 1">
<g id="Iconly/Light/Password">
<g id="Password">
<path id="Stroke-1" fill-rule="evenodd" clip-rule="evenodd" d="M13.6117 2.29175H6.38758C3.87008 2.29175 2.29175 4.07425 2.29175 6.59675V13.4034C2.29175 15.9259 3.86258 17.7084 6.38758 17.7084H13.6109C16.1367 17.7084 17.7084 15.9259 17.7084 13.4034V6.59675C17.7084 4.07425 16.1367 2.29175 13.6117 2.29175Z" stroke="#AFB0B6" stroke-linecap="round" stroke-linejoin="round"/>
<path id="Stroke-3" fill-rule="evenodd" clip-rule="evenodd" d="M8.90759 10.0001C8.90759 10.8526 8.21676 11.5434 7.36426 11.5434C6.51176 11.5434 5.82092 10.8526 5.82092 10.0001C5.82092 9.14756 6.51176 8.45673 7.36426 8.45673H7.36676C8.21759 8.45756 8.90759 9.14839 8.90759 10.0001Z" stroke="#AFB0B6" stroke-linecap="round" stroke-linejoin="round"/>
<path id="Stroke-5" d="M8.91 10.0001H14.175V11.5434" stroke="#AFB0B6" stroke-linecap="round" stroke-linejoin="round"/>
<path id="Stroke-7" d="M11.8182 11.5435V10.0002" stroke="#AFB0B6" stroke-linecap="round" stroke-linejoin="round"/>
</g>
</g>
</g>
</svg>
