<svg width="20" height="20" viewBox="0 0 20 20" fill="none" xmlns="http://www.w3.org/2000/svg">
<g id="profile.2 1">
<g id="Iconly/Curved/Profile">
<g id="Profile">
<path id="Stroke-1" fill-rule="evenodd" clip-rule="evenodd" d="M9.87044 18.0516C6.79393 18.0516 4.16666 17.5728 4.16666 15.6555C4.16666 13.7382 6.77726 11.9683 9.87044 11.9683C12.947 11.9683 15.5742 13.7211 15.5742 15.6384C15.5742 17.5549 12.9636 18.0516 9.87044 18.0516Z" stroke="#AFB0B6" stroke-width="1.5" stroke-linecap="round" stroke-linejoin="round"/>
<path id="Stroke-3" fill-rule="evenodd" clip-rule="evenodd" d="M9.86442 9.31136C11.8834 9.31136 13.5197 7.675 13.5197 5.65606C13.5197 3.63712 11.8834 2 9.86442 2C7.84548 2 6.20833 3.63712 6.20833 5.65606C6.20154 7.66818 7.82654 9.30455 9.83866 9.31136C9.84775 9.31136 9.85608 9.31136 9.86442 9.31136Z" stroke="#AFB0B6" stroke-width="1.5" stroke-linecap="round" stroke-linejoin="round"/>
</g>
</g>
</g>
</svg>
